<svg xmlns="http://www.w3.org/2000/svg" xmlns:xlink="http://www.w3.org/1999/xlink" width="500" zoomAndPan="magnify" viewBox="0 0 375 374.999991" height="500" preserveAspectRatio="xMidYMid meet" version="1.0"><defs><g/><clipPath id="1d2c39a55c"><path d="M 61 152.007812 L 129.910156 152.007812 L 129.910156 170 L 61 170 Z M 61 152.007812 " clip-rule="nonzero"/></clipPath><clipPath id="4bc4e87209"><path d="M 80 172 L 129.910156 172 L 129.910156 189 L 80 189 Z M 80 172 " clip-rule="nonzero"/></clipPath><clipPath id="b20d3fc82d"><path d="M 46.660156 184 L 129.910156 184 L 129.910156 203 L 46.660156 203 Z M 46.660156 184 " clip-rule="nonzero"/></clipPath><clipPath id="47bbd26d30"><path d="M 65 205 L 129.910156 205 L 129.910156 223.257812 L 65 223.257812 Z M 65 205 " clip-rule="nonzero"/></clipPath></defs><rect x="-37.5" width="450" fill="#ffffff" y="-37.499999" height="449.999989" fill-opacity="1"/><rect x="-37.5" width="450" fill="#ffffff" y="-37.499999" height="449.999989" fill-opacity="1"/><rect x="-37.5" width="450" fill="#01080d" y="-37.499999" height="449.999989" fill-opacity="1"/><g clip-path="url(#1d2c39a55c)"><path fill="#ffffff" d="M 69.378906 167.628906 C 73.292969 167.628906 76.515625 164.707031 77.039062 160.910156 L 90.265625 160.910156 L 95.925781 169.113281 C 96.140625 169.417969 96.445312 169.546875 96.792969 169.546875 L 128.867188 169.546875 C 129.433594 169.546875 129.910156 169.070312 129.910156 168.5 C 129.910156 167.933594 129.433594 167.453125 128.867188 167.453125 L 97.316406 167.453125 L 91.660156 159.253906 C 91.441406 158.945312 91.136719 158.816406 90.789062 158.816406 L 76.992188 158.816406 C 76.472656 155.019531 73.25 152.097656 69.335938 152.097656 C 65.070312 152.097656 61.589844 155.585938 61.589844 159.863281 C 61.589844 164.136719 65.113281 167.628906 69.378906 167.628906 Z M 69.378906 154.234375 C 72.46875 154.234375 74.992188 156.765625 74.992188 159.863281 C 74.992188 162.960938 72.46875 165.492188 69.378906 165.492188 C 66.289062 165.492188 63.765625 162.960938 63.765625 159.863281 C 63.765625 156.765625 66.246094 154.234375 69.378906 154.234375 Z M 69.378906 154.234375 " fill-opacity="1" fill-rule="nonzero"/></g><g clip-path="url(#4bc4e87209)"><path fill="#ffffff" d="M 128.867188 179.582031 L 95.488281 179.582031 C 94.964844 175.785156 91.746094 172.863281 87.828125 172.863281 C 83.566406 172.863281 80.082031 176.355469 80.082031 180.628906 C 80.082031 184.90625 83.566406 188.394531 87.828125 188.394531 C 91.746094 188.394531 94.964844 185.472656 95.488281 181.675781 L 128.867188 181.675781 C 129.433594 181.675781 129.910156 181.195312 129.910156 180.628906 C 129.910156 180.0625 129.433594 179.582031 128.867188 179.582031 Z M 87.828125 186.300781 C 84.738281 186.300781 82.214844 183.769531 82.214844 180.671875 C 82.214844 177.574219 84.738281 175 87.828125 175 C 90.917969 175 93.445312 177.53125 93.445312 180.628906 C 93.445312 183.769531 90.917969 186.300781 87.828125 186.300781 Z M 87.828125 186.300781 " fill-opacity="1" fill-rule="nonzero"/></g><g clip-path="url(#b20d3fc82d)"><path fill="#ffffff" d="M 128.867188 193.019531 L 99.753906 193.019531 C 99.40625 193.019531 99.058594 193.195312 98.839844 193.5 L 94.75 200.042969 L 76.820312 200.042969 L 72.382812 191.753906 C 72.207031 191.40625 71.859375 191.1875 71.46875 191.1875 L 62.066406 191.1875 C 61.542969 187.390625 58.324219 184.46875 54.40625 184.46875 C 50.144531 184.46875 46.660156 187.960938 46.660156 192.234375 C 46.660156 196.511719 50.144531 200 54.40625 200 C 58.324219 200 61.542969 197.078125 62.066406 193.28125 L 70.8125 193.28125 L 75.253906 201.570312 C 75.425781 201.921875 75.773438 202.136719 76.167969 202.136719 L 95.316406 202.136719 C 95.664062 202.136719 96.011719 201.964844 96.230469 201.660156 L 100.320312 195.113281 L 128.824219 195.113281 C 129.390625 195.113281 129.867188 194.632812 129.867188 194.066406 C 129.910156 193.5 129.433594 193.019531 128.867188 193.019531 Z M 54.40625 197.949219 C 51.316406 197.949219 48.792969 195.417969 48.792969 192.320312 C 48.792969 189.222656 51.316406 186.695312 54.40625 186.695312 C 57.496094 186.695312 60.023438 189.222656 60.023438 192.320312 C 60.066406 195.417969 57.542969 197.949219 54.40625 197.949219 Z M 54.40625 197.949219 " fill-opacity="1" fill-rule="nonzero"/></g><g clip-path="url(#47bbd26d30)"><path fill="#ffffff" d="M 128.867188 205.367188 L 112.070312 205.367188 C 111.675781 205.367188 111.328125 205.585938 111.15625 205.890625 L 106.195312 214.355469 L 80.867188 214.355469 C 80.34375 210.558594 77.125 207.636719 73.207031 207.636719 C 68.941406 207.636719 65.460938 211.125 65.460938 215.402344 C 65.460938 219.675781 68.941406 223.167969 73.207031 223.167969 C 77.125 223.167969 80.34375 220.242188 80.867188 216.449219 L 106.804688 216.449219 C 107.195312 216.449219 107.542969 216.230469 107.71875 215.925781 L 112.679688 207.460938 L 128.867188 207.460938 C 129.433594 207.460938 129.910156 206.980469 129.910156 206.414062 C 129.910156 205.847656 129.433594 205.367188 128.867188 205.367188 Z M 73.207031 221.074219 C 70.117188 221.074219 67.59375 218.542969 67.59375 215.445312 C 67.59375 212.347656 70.117188 209.816406 73.207031 209.816406 C 76.296875 209.816406 78.820312 212.347656 78.820312 215.445312 C 78.863281 218.542969 76.339844 221.074219 73.207031 221.074219 Z M 73.207031 221.074219 " fill-opacity="1" fill-rule="nonzero"/></g><g fill="#ffffff" fill-opacity="1"><g transform="translate(137.811324, 185.055852)"><g><path d="M 14.042969 -16.746094 L 6.644531 -16.746094 C 5.753906 -16.746094 4.980469 -16.625 4.347656 -16.402344 C 3.699219 -16.160156 3.171875 -15.773438 2.785156 -15.265625 C 2.378906 -14.757812 2.074219 -14.085938 1.890625 -13.273438 C 1.707031 -12.480469 1.625 -11.503906 1.625 -10.386719 L 1.625 -6.363281 C 1.625 -5.222656 1.707031 -4.246094 1.890625 -3.433594 C 2.074219 -2.640625 2.378906 -1.972656 2.785156 -1.441406 C 3.191406 -0.933594 3.71875 -0.546875 4.347656 -0.324219 C 4.980469 -0.101562 5.753906 0.0195312 6.644531 0.0195312 L 14.042969 0.0195312 C 14.207031 0.0195312 14.613281 -0.0625 14.613281 -0.691406 L 14.613281 -2.296875 C 14.613281 -2.925781 14.207031 -3.007812 14.042969 -3.007812 L 6.746094 -3.007812 C 6.320312 -3.007812 5.957031 -3.046875 5.691406 -3.148438 C 5.425781 -3.230469 5.242188 -3.375 5.082031 -3.597656 C 4.917969 -3.800781 4.816406 -4.105469 4.734375 -4.492188 C 4.675781 -4.898438 4.632812 -5.40625 4.632812 -6.015625 L 4.632812 -10.75 C 4.632812 -11.363281 4.675781 -11.871094 4.734375 -12.257812 C 4.816406 -12.640625 4.917969 -12.925781 5.082031 -13.148438 C 5.242188 -13.375 5.425781 -13.515625 5.691406 -13.597656 C 5.957031 -13.699219 6.320312 -13.738281 6.746094 -13.738281 L 14.042969 -13.738281 C 14.207031 -13.738281 14.613281 -13.820312 14.613281 -14.472656 L 14.613281 -16.035156 C 14.613281 -16.667969 14.207031 -16.746094 14.042969 -16.746094 Z M 14.042969 -16.746094 "/></g></g></g><g fill="#ffffff" fill-opacity="1"><g transform="translate(155.0632, 185.055852)"><g><path d="M 15.488281 -11.890625 C 15.488281 -11.871094 15.488281 -11.847656 15.488281 -11.828125 C 15.488281 -11.808594 15.488281 -11.789062 15.488281 -11.769531 Z M 15.875 -0.875 L 12.316406 -6.972656 C 13.3125 -7.09375 14.085938 -7.519531 14.59375 -8.210938 C 15.164062 -9.042969 15.46875 -10.242188 15.488281 -11.828125 C 15.46875 -13.414062 15.164062 -14.613281 14.59375 -15.445312 C 13.984375 -16.320312 12.96875 -16.746094 11.585938 -16.746094 L 2.214844 -16.746094 C 2.03125 -16.746094 1.625 -16.6875 1.625 -16.035156 L 1.625 -14.429688 C 1.625 -13.800781 2.03125 -13.738281 2.214844 -13.738281 L 11.058594 -13.738281 C 11.585938 -13.738281 11.929688 -13.597656 12.132812 -13.292969 C 12.359375 -12.988281 12.460938 -12.5 12.460938 -11.828125 C 12.460938 -11.160156 12.359375 -10.671875 12.132812 -10.367188 C 11.929688 -10.0625 11.585938 -9.917969 11.058594 -9.917969 L 2.214844 -9.917969 C 2.03125 -9.917969 1.625 -9.859375 1.625 -9.226562 L 1.625 -0.691406 C 1.625 -0.0625 2.03125 0.0195312 2.214844 0.0195312 L 4.066406 0.0195312 C 4.246094 0.0195312 4.632812 -0.0625 4.632812 -0.691406 L 4.632812 -6.910156 L 8.921875 -6.910156 L 12.601562 -0.386719 C 12.683594 -0.265625 12.742188 -0.164062 12.824219 -0.101562 C 12.925781 -0.0195312 13.070312 0.0195312 13.25 0.0195312 L 15.488281 0.0195312 C 15.730469 0.0195312 15.914062 -0.140625 15.957031 -0.386719 C 15.976562 -0.589844 15.957031 -0.753906 15.875 -0.875 Z M 15.875 -0.875 "/></g></g></g><g fill="#ffffff" fill-opacity="1"><g transform="translate(173.676533, 185.055852)"><g><path d="M 16.667969 -16.746094 L 14.410156 -16.746094 C 14.226562 -16.746094 13.984375 -16.6875 13.820312 -16.382812 L 9.347656 -8.230469 L 4.917969 -16.363281 C 4.757812 -16.6875 4.511719 -16.746094 4.328125 -16.746094 L 2.011719 -16.746094 C 1.828125 -16.746094 1.6875 -16.644531 1.644531 -16.464844 C 1.605469 -16.320312 1.625 -16.160156 1.707031 -16.015625 L 7.804688 -5.140625 L 7.804688 -0.691406 C 7.804688 -0.0625 8.210938 0 8.375 0 L 10.242188 0 C 10.40625 0 10.8125 -0.0625 10.8125 -0.691406 L 10.8125 -5.140625 L 16.972656 -16.015625 C 17.050781 -16.160156 17.074219 -16.320312 17.03125 -16.484375 C 16.972656 -16.644531 16.828125 -16.746094 16.667969 -16.746094 Z M 16.667969 -16.746094 "/></g></g></g><g fill="#ffffff" fill-opacity="1"><g transform="translate(193.366836, 185.055852)"><g><path d="M 11.441406 -10 L 5.34375 -10 C 5.039062 -10 4.65625 -10.121094 4.65625 -11.117188 L 4.65625 -12.621094 C 4.65625 -12.988281 4.714844 -13.273438 4.816406 -13.476562 C 4.898438 -13.597656 5.019531 -13.738281 5.367188 -13.738281 L 13.636719 -13.738281 C 13.800781 -13.738281 14.207031 -13.800781 14.207031 -14.429688 L 14.207031 -16.058594 C 14.207031 -16.6875 13.800781 -16.746094 13.636719 -16.746094 L 4.878906 -16.746094 C 3.761719 -16.746094 2.945312 -16.382812 2.417969 -15.628906 C 1.890625 -14.898438 1.625 -13.921875 1.625 -12.742188 L 1.625 -11.199219 C 1.625 -9.796875 1.910156 -8.660156 2.417969 -7.945312 C 3.046875 -7.113281 3.984375 -6.992188 4.835938 -6.992188 L 10.933594 -6.992188 C 11.238281 -6.992188 11.644531 -6.871094 11.644531 -5.875 L 11.644531 -4.125 C 11.644531 -3.761719 11.585938 -3.476562 11.464844 -3.273438 C 11.382812 -3.148438 11.261719 -3.007812 10.914062 -3.007812 L 2.234375 -3.007812 C 2.054688 -3.007812 1.644531 -2.945312 1.644531 -2.316406 L 1.644531 -0.691406 C 1.644531 -0.0625 2.054688 0 2.234375 0 L 11.402344 0 C 12.519531 0 13.355469 -0.386719 13.882812 -1.136719 C 14.390625 -1.871094 14.65625 -2.824219 14.65625 -4.003906 L 14.65625 -5.792969 C 14.65625 -7.113281 14.390625 -8.148438 13.863281 -8.882812 C 13.3125 -9.613281 12.5 -10 11.441406 -10 Z M 11.441406 -10 "/></g></g></g><g fill="#ffffff" fill-opacity="1"><g transform="translate(210.659361, 185.055852)"><g><path d="M 15.671875 -16.746094 L 2.214844 -16.746094 C 2.03125 -16.746094 1.625 -16.6875 1.625 -16.058594 L 1.625 -14.472656 C 1.625 -13.800781 2.03125 -13.738281 2.214844 -13.738281 L 7.4375 -13.738281 L 7.4375 -0.691406 C 7.4375 -0.0625 7.84375 0 8.007812 0 L 9.878906 0 C 10.0625 0 10.445312 -0.0625 10.445312 -0.691406 L 10.445312 -13.738281 L 15.671875 -13.738281 C 15.851562 -13.738281 16.261719 -13.800781 16.261719 -14.472656 L 16.261719 -16.058594 C 16.261719 -16.6875 15.851562 -16.746094 15.671875 -16.746094 Z M 15.671875 -16.746094 "/></g></g></g><g fill="#ffffff" fill-opacity="1"><g transform="translate(229.557183, 185.055852)"><g><path d="M 16.667969 -16.746094 L 14.410156 -16.746094 C 14.226562 -16.746094 13.984375 -16.6875 13.820312 -16.382812 L 9.347656 -8.230469 L 4.917969 -16.363281 C 4.757812 -16.6875 4.511719 -16.746094 4.328125 -16.746094 L 2.011719 -16.746094 C 1.828125 -16.746094 1.6875 -16.644531 1.644531 -16.464844 C 1.605469 -16.320312 1.625 -16.160156 1.707031 -16.015625 L 7.804688 -5.140625 L 7.804688 -0.691406 C 7.804688 -0.0625 8.210938 0 8.375 0 L 10.242188 0 C 10.40625 0 10.8125 -0.0625 10.8125 -0.691406 L 10.8125 -5.140625 L 16.972656 -16.015625 C 17.050781 -16.160156 17.074219 -16.320312 17.03125 -16.484375 C 16.972656 -16.644531 16.828125 -16.746094 16.667969 -16.746094 Z M 16.667969 -16.746094 "/></g></g></g><g fill="#ffffff" fill-opacity="1"><g transform="translate(249.247485, 185.055852)"><g><path d="M 12.519531 -14.859375 C 12.480469 -14.960938 12.4375 -15.082031 12.398438 -15.164062 C 12.074219 -16.21875 11.097656 -16.972656 9.980469 -16.972656 C 9.472656 -16.972656 8.984375 -16.828125 8.578125 -16.542969 C 8.457031 -16.484375 8.355469 -16.402344 8.273438 -16.339844 C 7.96875 -16.078125 7.664062 -15.589844 7.378906 -14.859375 L 1.707031 -0.773438 C 1.644531 -0.589844 1.625 -0.40625 1.667969 -0.285156 C 1.6875 -0.164062 1.789062 0.0195312 2.113281 0.0195312 L 4.347656 0.0195312 C 4.613281 0.0195312 4.816406 -0.140625 4.917969 -0.40625 L 6.078125 -3.3125 L 10.527344 -3.3125 C 10.75 -3.3125 10.957031 -3.414062 11.058594 -3.597656 C 11.179688 -3.761719 11.199219 -3.984375 11.136719 -4.1875 L 10.40625 -5.996094 C 10.304688 -6.238281 10.082031 -6.402344 9.816406 -6.402344 L 7.296875 -6.402344 L 9.898438 -12.988281 C 9.917969 -13.027344 9.9375 -13.046875 9.9375 -13.046875 L 10.019531 -13.046875 C 10.019531 -13.046875 10.019531 -13.046875 10.039062 -13.007812 L 15.082031 -0.425781 C 15.183594 -0.140625 15.386719 0.0195312 15.671875 0.0195312 L 17.84375 0.0195312 C 18.171875 0.0195312 18.25 -0.183594 18.292969 -0.285156 C 18.332031 -0.40625 18.3125 -0.589844 18.230469 -0.773438 Z M 12.519531 -14.859375 "/></g></g></g><g fill="#ffffff" fill-opacity="1"><g transform="translate(270.21797, 185.055852)"><g><path d="M 16.015625 -16.746094 L 14.207031 -16.746094 C 14.023438 -16.746094 13.636719 -16.6875 13.636719 -16.035156 L 13.636719 -3.820312 C 13.636719 -3.800781 13.636719 -3.800781 13.636719 -3.78125 L 13.535156 -3.78125 C 13.515625 -3.78125 13.496094 -3.78125 13.476562 -3.839844 L 7.054688 -15.265625 C 6.890625 -15.570312 6.746094 -15.8125 6.605469 -15.996094 C 6.464844 -16.199219 6.320312 -16.363281 6.179688 -16.464844 C 6.015625 -16.585938 5.832031 -16.667969 5.609375 -16.707031 C 5.40625 -16.726562 5.164062 -16.746094 4.898438 -16.746094 L 3.375 -16.746094 C 2.785156 -16.746094 2.335938 -16.542969 2.054688 -16.179688 C 1.769531 -15.792969 1.625 -15.121094 1.625 -14.125 L 1.625 -0.691406 C 1.625 -0.0625 2.03125 0.0195312 2.214844 0.0195312 L 4.023438 0.0195312 C 4.207031 0.0195312 4.59375 -0.0625 4.59375 -0.691406 L 4.59375 -12.90625 C 4.59375 -12.925781 4.59375 -12.945312 4.59375 -12.945312 L 4.695312 -12.945312 C 4.695312 -12.945312 4.714844 -12.945312 4.757812 -12.886719 L 11.199219 -1.464844 C 11.363281 -1.136719 11.523438 -0.894531 11.667969 -0.710938 C 11.808594 -0.507812 11.949219 -0.367188 12.113281 -0.265625 C 12.277344 -0.140625 12.460938 -0.0820312 12.664062 -0.0390625 C 12.84375 0 13.070312 0.0195312 13.355469 0.0195312 L 14.835938 0.0195312 C 15.425781 0.0195312 15.875 -0.183594 16.160156 -0.570312 C 16.441406 -0.933594 16.585938 -1.605469 16.585938 -2.601562 L 16.585938 -16.035156 C 16.585938 -16.6875 16.179688 -16.746094 16.015625 -16.746094 Z M 16.015625 -16.746094 "/></g></g></g><g fill="#ffffff" fill-opacity="1"><g transform="translate(289.440908, 185.055852)"><g><path d="M 16.015625 -16.746094 L 14.207031 -16.746094 C 14.023438 -16.746094 13.636719 -16.6875 13.636719 -16.035156 L 13.636719 -3.820312 C 13.636719 -3.800781 13.636719 -3.800781 13.636719 -3.78125 L 13.535156 -3.78125 C 13.515625 -3.78125 13.496094 -3.78125 13.476562 -3.839844 L 7.054688 -15.265625 C 6.890625 -15.570312 6.746094 -15.8125 6.605469 -15.996094 C 6.464844 -16.199219 6.320312 -16.363281 6.179688 -16.464844 C 6.015625 -16.585938 5.832031 -16.667969 5.609375 -16.707031 C 5.40625 -16.726562 5.164062 -16.746094 4.898438 -16.746094 L 3.375 -16.746094 C 2.785156 -16.746094 2.335938 -16.542969 2.054688 -16.179688 C 1.769531 -15.792969 1.625 -15.121094 1.625 -14.125 L 1.625 -0.691406 C 1.625 -0.0625 2.03125 0.0195312 2.214844 0.0195312 L 4.023438 0.0195312 C 4.207031 0.0195312 4.59375 -0.0625 4.59375 -0.691406 L 4.59375 -12.90625 C 4.59375 -12.925781 4.59375 -12.945312 4.59375 -12.945312 L 4.695312 -12.945312 C 4.695312 -12.945312 4.714844 -12.945312 4.757812 -12.886719 L 11.199219 -1.464844 C 11.363281 -1.136719 11.523438 -0.894531 11.667969 -0.710938 C 11.808594 -0.507812 11.949219 -0.367188 12.113281 -0.265625 C 12.277344 -0.140625 12.460938 -0.0820312 12.664062 -0.0390625 C 12.84375 0 13.070312 0.0195312 13.355469 0.0195312 L 14.835938 0.0195312 C 15.425781 0.0195312 15.875 -0.183594 16.160156 -0.570312 C 16.441406 -0.933594 16.585938 -1.605469 16.585938 -2.601562 L 16.585938 -16.035156 C 16.585938 -16.6875 16.179688 -16.746094 16.015625 -16.746094 Z M 16.015625 -16.746094 "/></g></g></g><g fill="#ffffff" fill-opacity="1"><g transform="translate(308.663845, 185.055852)"><g><path d="M 15.46875 -15.265625 C 15.0625 -15.773438 14.53125 -16.160156 13.882812 -16.402344 C 13.25 -16.625 12.480469 -16.746094 11.585938 -16.746094 L 6.625 -16.746094 C 5.730469 -16.746094 4.980469 -16.625 4.347656 -16.402344 C 3.699219 -16.160156 3.171875 -15.773438 2.765625 -15.265625 C 2.378906 -14.757812 2.074219 -14.085938 1.890625 -13.273438 C 1.707031 -12.480469 1.625 -11.523438 1.625 -10.386719 L 1.625 -6.363281 C 1.625 -5.222656 1.707031 -4.246094 1.890625 -3.457031 C 2.074219 -2.640625 2.378906 -1.972656 2.765625 -1.464844 C 3.171875 -0.933594 3.699219 -0.546875 4.347656 -0.324219 C 4.960938 -0.101562 5.730469 0.0195312 6.625 0.0195312 L 11.585938 0.0195312 C 12.480469 0.0195312 13.25 -0.101562 13.882812 -0.324219 C 14.53125 -0.546875 15.0625 -0.933594 15.46875 -1.441406 C 15.875 -1.972656 16.160156 -2.640625 16.339844 -3.457031 C 16.503906 -4.246094 16.605469 -5.222656 16.605469 -6.363281 L 16.605469 -10.386719 C 16.605469 -11.503906 16.503906 -12.480469 16.339844 -13.273438 C 16.160156 -14.085938 15.875 -14.757812 15.46875 -15.265625 Z M 13.578125 -10.730469 L 13.578125 -5.996094 C 13.578125 -5.40625 13.558594 -4.898438 13.476562 -4.492188 C 13.414062 -4.125 13.292969 -3.800781 13.128906 -3.597656 C 12.988281 -3.375 12.785156 -3.230469 12.519531 -3.148438 C 12.257812 -3.046875 11.910156 -3.007812 11.484375 -3.007812 L 6.726562 -3.007812 C 6.300781 -3.007812 5.957031 -3.046875 5.691406 -3.148438 C 5.425781 -3.230469 5.222656 -3.375 5.082031 -3.597656 C 4.917969 -3.800781 4.816406 -4.125 4.734375 -4.492188 C 4.675781 -4.898438 4.632812 -5.40625 4.632812 -5.996094 L 4.632812 -10.730469 C 4.632812 -11.320312 4.675781 -11.828125 4.734375 -12.234375 C 4.816406 -12.621094 4.917969 -12.925781 5.082031 -13.148438 C 5.222656 -13.355469 5.425781 -13.496094 5.691406 -13.597656 C 5.957031 -13.679688 6.300781 -13.738281 6.726562 -13.738281 L 11.484375 -13.738281 C 11.910156 -13.738281 12.257812 -13.679688 12.519531 -13.597656 C 12.785156 -13.496094 12.988281 -13.355469 13.128906 -13.148438 C 13.292969 -12.925781 13.414062 -12.621094 13.476562 -12.234375 C 13.558594 -11.828125 13.578125 -11.320312 13.578125 -10.730469 Z M 13.578125 -10.730469 "/></g></g></g><g fill="#ffffff" fill-opacity="1"><g transform="translate(137.811324, 209.833039)"><g><path d="M 18.523438 -12.023438 L 16.941406 -12.023438 C 16.757812 -12.023438 16.613281 -11.910156 16.527344 -11.707031 L 13.808594 -3.078125 C 13.792969 -3.050781 13.792969 -3.050781 13.792969 -3.050781 L 13.734375 -3.035156 C 13.734375 -3.035156 13.722656 -3.050781 13.722656 -3.0625 L 11.203125 -11.707031 C 11.132812 -11.910156 10.988281 -12.023438 10.800781 -12.023438 L 9.175781 -12.023438 C 8.988281 -12.023438 8.84375 -11.910156 8.757812 -11.707031 L 6.039062 -3.078125 C 6.027344 -3.050781 6.027344 -3.050781 6.027344 -3.050781 L 5.96875 -3.035156 C 5.96875 -3.035156 5.953125 -3.050781 5.953125 -3.0625 L 3.4375 -11.707031 C 3.367188 -11.910156 3.222656 -12.023438 3.019531 -12.023438 L 1.480469 -12.023438 C 1.25 -12.023438 1.195312 -11.878906 1.179688 -11.808594 C 1.152344 -11.707031 1.152344 -11.59375 1.207031 -11.464844 L 4.183594 -1.496094 C 4.214844 -1.425781 4.257812 -1.335938 4.285156 -1.28125 C 4.5 -0.53125 5.207031 0 5.996094 0 C 6.355469 0 6.703125 -0.101562 6.988281 -0.300781 C 7.078125 -0.34375 7.132812 -0.402344 7.207031 -0.445312 C 7.40625 -0.632812 7.621094 -0.976562 7.839844 -1.511719 L 9.96875 -8.125 L 11.953125 -1.496094 C 11.980469 -1.425781 12.023438 -1.335938 12.054688 -1.28125 C 12.269531 -0.53125 12.972656 0 13.765625 0 C 14.125 0 14.46875 -0.101562 14.757812 -0.300781 C 14.84375 -0.34375 14.914062 -0.402344 14.972656 -0.445312 C 15.1875 -0.632812 15.390625 -0.976562 15.605469 -1.511719 L 18.8125 -11.464844 C 18.855469 -11.59375 18.871094 -11.707031 18.839844 -11.808594 C 18.828125 -11.894531 18.753906 -12.023438 18.523438 -12.023438 Z M 18.523438 -12.023438 "/></g></g></g><g fill="#ffffff" fill-opacity="1"><g transform="translate(158.551733, 209.833039)"><g><path d="M 9.792969 -2.574219 L 4.730469 -2.574219 C 4.429688 -2.574219 4.183594 -2.617188 3.984375 -2.675781 C 3.796875 -2.746094 3.667969 -2.847656 3.550781 -2.992188 C 3.4375 -3.148438 3.351562 -3.367188 3.308594 -3.640625 C 3.292969 -3.710938 3.292969 -3.8125 3.28125 -3.882812 C 3.28125 -3.882812 3.292969 -4.917969 3.308594 -4.917969 L 9.738281 -4.917969 C 9.851562 -4.917969 10.140625 -4.976562 10.140625 -5.421875 L 10.140625 -6.558594 C 10.140625 -7.003906 9.851562 -7.046875 9.738281 -7.046875 L 2.316406 -7.035156 C 1.898438 -7.003906 1.539062 -6.789062 1.335938 -6.429688 C 1.265625 -6.3125 1.207031 -6.199219 1.179688 -6.070312 L 1.152344 -4.257812 L 1.152344 -4.183594 C 1.164062 -3.507812 1.238281 -2.933594 1.335938 -2.460938 C 1.46875 -1.882812 1.683594 -1.410156 1.957031 -1.050781 C 2.242188 -0.675781 2.617188 -0.417969 3.078125 -0.257812 C 3.523438 -0.0859375 4.054688 -0.015625 4.6875 -0.015625 L 9.792969 -0.015625 C 9.925781 -0.015625 10.210938 -0.0585938 10.210938 -0.503906 L 10.210938 -2.085938 C 10.210938 -2.53125 9.925781 -2.574219 9.792969 -2.574219 Z M 9.808594 -11.878906 L 1.539062 -11.878906 C 1.425781 -11.878906 1.152344 -11.824219 1.152344 -11.363281 L 1.152344 -10.242188 C 1.152344 -9.792969 1.425781 -9.75 1.539062 -9.75 L 9.808594 -9.738281 C 9.925781 -9.738281 10.210938 -9.792969 10.210938 -10.242188 L 10.210938 -11.375 C 10.210938 -11.824219 9.925781 -11.878906 9.808594 -11.878906 Z M 9.808594 -11.878906 "/></g></g></g><g fill="#ffffff" fill-opacity="1"><g transform="translate(170.633532, 209.833039)"><g><path d="M 11.105469 -8.183594 L 11.105469 -8.988281 C 11.105469 -9.925781 10.917969 -10.644531 10.542969 -11.117188 C 10.167969 -11.605469 9.535156 -11.851562 8.660156 -11.851562 L 2.300781 -11.851562 L 2.300781 -11.835938 C 1.882812 -11.808594 1.523438 -11.578125 1.308594 -11.234375 C 1.25 -11.117188 1.195312 -10.988281 1.164062 -10.875 L 1.152344 -1.050781 C 1.179688 -0.890625 1.238281 -0.734375 1.308594 -0.605469 C 1.539062 -0.214844 1.957031 0.015625 2.402344 0.015625 L 8.875 0.015625 C 9.304688 0.015625 9.664062 -0.0585938 9.953125 -0.203125 C 10.253906 -0.34375 10.5 -0.546875 10.671875 -0.820312 C 10.859375 -1.078125 10.972656 -1.394531 11.058594 -1.769531 C 11.132812 -2.128906 11.175781 -2.546875 11.175781 -2.992188 L 11.175781 -3.957031 C 11.175781 -4.90625 10.902344 -5.625 10.382812 -6.097656 C 10.875 -6.585938 11.105469 -7.292969 11.105469 -8.183594 Z M 3.265625 -2.199219 L 3.265625 -9.636719 C 3.265625 -9.695312 3.28125 -9.722656 3.292969 -9.722656 L 8.285156 -9.722656 C 8.558594 -9.722656 8.757812 -9.652344 8.875 -9.523438 C 8.988281 -9.390625 9.046875 -9.160156 9.046875 -8.859375 L 9.046875 -7.867188 C 9.046875 -7.59375 8.988281 -7.378906 8.859375 -7.234375 C 8.746094 -7.105469 8.5 -7.035156 8.125 -7.035156 L 5.335938 -7.035156 C 5.078125 -7.035156 4.863281 -6.816406 4.863281 -6.558594 L 4.863281 -5.378906 C 4.863281 -5.105469 5.078125 -4.90625 5.335938 -4.90625 L 8.125 -4.90625 C 8.5 -4.90625 8.746094 -4.816406 8.875 -4.675781 C 8.988281 -4.53125 9.0625 -4.300781 9.0625 -3.984375 L 9.0625 -3.007812 C 9.0625 -2.675781 9.003906 -2.445312 8.890625 -2.316406 C 8.773438 -2.1875 8.570312 -2.128906 8.285156 -2.128906 L 3.28125 -2.128906 C 3.28125 -2.128906 3.265625 -2.144531 3.265625 -2.199219 Z M 3.265625 -2.199219 "/></g></g></g><g fill="#ffffff" fill-opacity="1"><g transform="translate(183.678991, 209.833039)"><g/></g></g><g fill="#ffffff" fill-opacity="1"><g transform="translate(191.791055, 209.833039)"><g><path d="M 10.972656 -9.175781 C 10.832031 -9.78125 10.585938 -10.285156 10.285156 -10.6875 C 9.96875 -11.074219 9.550781 -11.375 9.0625 -11.5625 C 8.570312 -11.75 7.996094 -11.851562 7.320312 -11.851562 L 2.300781 -11.851562 L 2.300781 -11.835938 C 1.882812 -11.808594 1.523438 -11.578125 1.308594 -11.234375 C 1.25 -11.117188 1.195312 -10.988281 1.164062 -10.875 L 1.152344 -1.050781 C 1.179688 -0.890625 1.238281 -0.734375 1.308594 -0.605469 C 1.539062 -0.214844 1.957031 0.015625 2.402344 0.015625 L 7.320312 0.015625 C 7.996094 0.015625 8.585938 -0.0859375 9.0625 -0.273438 C 9.550781 -0.460938 9.96875 -0.761719 10.285156 -1.164062 C 10.585938 -1.554688 10.832031 -2.058594 10.972656 -2.660156 C 11.117188 -3.265625 11.191406 -3.984375 11.191406 -4.789062 L 11.191406 -7.046875 C 11.191406 -7.851562 11.117188 -8.570312 10.972656 -9.175781 Z M 3.265625 -2.199219 L 3.265625 -9.636719 C 3.265625 -9.695312 3.28125 -9.722656 3.292969 -9.722656 L 7.277344 -9.722656 C 7.609375 -9.722656 7.894531 -9.679688 8.125 -9.59375 C 8.355469 -9.507812 8.527344 -9.390625 8.660156 -9.207031 C 8.800781 -9.019531 8.902344 -8.773438 8.960938 -8.472656 C 9.019531 -8.140625 9.0625 -7.738281 9.0625 -7.261719 L 9.0625 -4.574219 C 9.0625 -4.097656 9.019531 -3.695312 8.960938 -3.378906 C 8.902344 -3.0625 8.800781 -2.820312 8.660156 -2.632812 C 8.527344 -2.460938 8.355469 -2.328125 8.125 -2.242188 C 7.894531 -2.15625 7.609375 -2.128906 7.277344 -2.128906 L 3.28125 -2.128906 C 3.28125 -2.128906 3.265625 -2.144531 3.265625 -2.199219 Z M 3.265625 -2.199219 "/></g></g></g><g fill="#ffffff" fill-opacity="1"><g transform="translate(204.85089, 209.833039)"><g><path d="M 9.792969 -2.574219 L 4.730469 -2.574219 C 4.429688 -2.574219 4.183594 -2.617188 3.984375 -2.675781 C 3.796875 -2.746094 3.667969 -2.847656 3.550781 -2.992188 C 3.4375 -3.148438 3.351562 -3.367188 3.308594 -3.640625 C 3.292969 -3.710938 3.292969 -3.8125 3.28125 -3.882812 C 3.28125 -3.882812 3.292969 -4.917969 3.308594 -4.917969 L 9.738281 -4.917969 C 9.851562 -4.917969 10.140625 -4.976562 10.140625 -5.421875 L 10.140625 -6.558594 C 10.140625 -7.003906 9.851562 -7.046875 9.738281 -7.046875 L 2.316406 -7.035156 C 1.898438 -7.003906 1.539062 -6.789062 1.335938 -6.429688 C 1.265625 -6.3125 1.207031 -6.199219 1.179688 -6.070312 L 1.152344 -4.257812 L 1.152344 -4.183594 C 1.164062 -3.507812 1.238281 -2.933594 1.335938 -2.460938 C 1.46875 -1.882812 1.683594 -1.410156 1.957031 -1.050781 C 2.242188 -0.675781 2.617188 -0.417969 3.078125 -0.257812 C 3.523438 -0.0859375 4.054688 -0.015625 4.6875 -0.015625 L 9.792969 -0.015625 C 9.925781 -0.015625 10.210938 -0.0585938 10.210938 -0.503906 L 10.210938 -2.085938 C 10.210938 -2.53125 9.925781 -2.574219 9.792969 -2.574219 Z M 9.808594 -11.878906 L 1.539062 -11.878906 C 1.425781 -11.878906 1.152344 -11.824219 1.152344 -11.363281 L 1.152344 -10.242188 C 1.152344 -9.792969 1.425781 -9.75 1.539062 -9.75 L 9.808594 -9.738281 C 9.925781 -9.738281 10.210938 -9.792969 10.210938 -10.242188 L 10.210938 -11.375 C 10.210938 -11.824219 9.925781 -11.878906 9.808594 -11.878906 Z M 9.808594 -11.878906 "/></g></g></g><g fill="#ffffff" fill-opacity="1"><g transform="translate(216.932689, 209.833039)"><g><path d="M 12.613281 -12.011719 L 11.03125 -12.011719 C 10.84375 -12.011719 10.699219 -11.910156 10.613281 -11.707031 L 7.089844 -2.804688 C 7.089844 -2.777344 7.078125 -2.777344 7.078125 -2.777344 L 7.019531 -2.761719 C 7.019531 -2.761719 7.019531 -2.777344 7.003906 -2.804688 L 3.421875 -11.707031 C 3.367188 -11.910156 3.222656 -12.011719 3.019531 -12.011719 L 1.46875 -12.011719 C 1.25 -12.011719 1.179688 -11.867188 1.164062 -11.808594 C 1.136719 -11.707031 1.152344 -11.59375 1.207031 -11.449219 L 5.234375 -1.496094 C 5.277344 -1.410156 5.308594 -1.335938 5.335938 -1.28125 C 5.550781 -0.519531 6.257812 0.015625 7.046875 0.015625 C 7.40625 0.015625 7.753906 -0.101562 8.039062 -0.300781 C 8.125 -0.34375 8.199219 -0.386719 8.253906 -0.445312 C 8.472656 -0.632812 8.671875 -0.976562 8.890625 -1.496094 L 12.886719 -11.449219 C 12.945312 -11.59375 12.960938 -11.707031 12.929688 -11.808594 C 12.902344 -11.878906 12.828125 -12.011719 12.613281 -12.011719 Z M 12.613281 -12.011719 "/></g></g></g><g fill="#ffffff" fill-opacity="1"><g transform="translate(231.747271, 209.833039)"><g><path d="M 9.792969 -2.574219 L 4.730469 -2.574219 C 4.429688 -2.574219 4.183594 -2.617188 3.984375 -2.675781 C 3.796875 -2.746094 3.667969 -2.847656 3.550781 -2.992188 C 3.4375 -3.148438 3.351562 -3.367188 3.308594 -3.640625 C 3.292969 -3.710938 3.292969 -3.8125 3.28125 -3.882812 C 3.28125 -3.882812 3.292969 -4.917969 3.308594 -4.917969 L 9.738281 -4.917969 C 9.851562 -4.917969 10.140625 -4.976562 10.140625 -5.421875 L 10.140625 -6.558594 C 10.140625 -7.003906 9.851562 -7.046875 9.738281 -7.046875 L 2.316406 -7.035156 C 1.898438 -7.003906 1.539062 -6.789062 1.335938 -6.429688 C 1.265625 -6.3125 1.207031 -6.199219 1.179688 -6.070312 L 1.152344 -4.257812 L 1.152344 -4.183594 C 1.164062 -3.507812 1.238281 -2.933594 1.335938 -2.460938 C 1.46875 -1.882812 1.683594 -1.410156 1.957031 -1.050781 C 2.242188 -0.675781 2.617188 -0.417969 3.078125 -0.257812 C 3.523438 -0.0859375 4.054688 -0.015625 4.6875 -0.015625 L 9.792969 -0.015625 C 9.925781 -0.015625 10.210938 -0.0585938 10.210938 -0.503906 L 10.210938 -2.085938 C 10.210938 -2.53125 9.925781 -2.574219 9.792969 -2.574219 Z M 9.808594 -11.878906 L 1.539062 -11.878906 C 1.425781 -11.878906 1.152344 -11.824219 1.152344 -11.363281 L 1.152344 -10.242188 C 1.152344 -9.792969 1.425781 -9.75 1.539062 -9.75 L 9.808594 -9.738281 C 9.925781 -9.738281 10.210938 -9.792969 10.210938 -10.242188 L 10.210938 -11.375 C 10.210938 -11.824219 9.925781 -11.878906 9.808594 -11.878906 Z M 9.808594 -11.878906 "/></g></g></g><g fill="#ffffff" fill-opacity="1"><g transform="translate(243.82907, 209.833039)"><g><path d="M 9.449219 -2.128906 L 4.773438 -2.128906 C 4.472656 -2.128906 4.230469 -2.15625 4.027344 -2.230469 C 3.855469 -2.285156 3.710938 -2.386719 3.609375 -2.546875 C 3.496094 -2.703125 3.410156 -2.917969 3.367188 -3.179688 C 3.308594 -3.464844 3.292969 -3.824219 3.292969 -4.257812 L 3.292969 -11.347656 C 3.292969 -11.808594 3.007812 -11.851562 2.890625 -11.851562 L 1.566406 -11.851562 C 1.4375 -11.851562 1.152344 -11.808594 1.152344 -11.347656 L 1.152344 -4.5 C 1.152344 -3.695312 1.222656 -3.007812 1.351562 -2.445312 C 1.480469 -1.871094 1.683594 -1.394531 1.96875 -1.035156 C 2.257812 -0.660156 2.632812 -0.386719 3.09375 -0.230469 C 3.523438 -0.0703125 4.070312 0.015625 4.703125 0.015625 L 9.449219 0.015625 C 9.578125 0.015625 9.851562 -0.0429688 9.851562 -0.488281 L 9.851562 -1.625 C 9.851562 -2.070312 9.578125 -2.128906 9.449219 -2.128906 Z M 9.449219 -2.128906 "/></g></g></g><g fill="#ffffff" fill-opacity="1"><g transform="translate(255.551291, 209.833039)"><g><path d="M 10.945312 -10.800781 C 10.65625 -11.160156 10.285156 -11.433594 9.824219 -11.605469 C 9.378906 -11.765625 8.832031 -11.851562 8.199219 -11.851562 L 4.6875 -11.851562 C 4.054688 -11.851562 3.523438 -11.765625 3.078125 -11.605469 C 2.617188 -11.433594 2.242188 -11.160156 1.957031 -10.800781 C 1.683594 -10.441406 1.46875 -9.96875 1.335938 -9.390625 C 1.207031 -8.832031 1.152344 -8.15625 1.152344 -7.351562 L 1.152344 -4.5 C 1.152344 -3.695312 1.207031 -3.007812 1.335938 -2.445312 C 1.46875 -1.871094 1.683594 -1.394531 1.957031 -1.035156 C 2.242188 -0.660156 2.617188 -0.386719 3.078125 -0.230469 C 3.507812 -0.0703125 4.054688 0.015625 4.6875 0.015625 L 8.199219 0.015625 C 8.832031 0.015625 9.378906 -0.0703125 9.824219 -0.230469 C 10.285156 -0.386719 10.65625 -0.660156 10.945312 -1.019531 C 11.234375 -1.394531 11.433594 -1.871094 11.5625 -2.445312 C 11.679688 -3.007812 11.75 -3.695312 11.75 -4.5 L 11.75 -7.351562 C 11.75 -8.140625 11.679688 -8.832031 11.5625 -9.390625 C 11.433594 -9.96875 11.234375 -10.441406 10.945312 -10.800781 Z M 9.609375 -7.59375 L 9.609375 -4.242188 C 9.609375 -3.824219 9.59375 -3.464844 9.535156 -3.179688 C 9.492188 -2.917969 9.40625 -2.691406 9.292969 -2.546875 C 9.191406 -2.386719 9.046875 -2.285156 8.859375 -2.230469 C 8.671875 -2.15625 8.429688 -2.128906 8.125 -2.128906 L 4.761719 -2.128906 C 4.457031 -2.128906 4.214844 -2.15625 4.027344 -2.230469 C 3.839844 -2.285156 3.695312 -2.386719 3.597656 -2.546875 C 3.480469 -2.691406 3.410156 -2.917969 3.351562 -3.179688 C 3.308594 -3.464844 3.28125 -3.824219 3.28125 -4.242188 L 3.28125 -7.59375 C 3.28125 -8.011719 3.308594 -8.371094 3.351562 -8.660156 C 3.410156 -8.933594 3.480469 -9.148438 3.597656 -9.304688 C 3.695312 -9.449219 3.839844 -9.550781 4.027344 -9.621094 C 4.214844 -9.679688 4.457031 -9.722656 4.761719 -9.722656 L 8.125 -9.722656 C 8.429688 -9.722656 8.671875 -9.679688 8.859375 -9.621094 C 9.046875 -9.550781 9.191406 -9.449219 9.292969 -9.304688 C 9.40625 -9.148438 9.492188 -8.933594 9.535156 -8.660156 C 9.59375 -8.371094 9.609375 -8.011719 9.609375 -7.59375 Z M 9.609375 -7.59375 "/></g></g></g><g fill="#ffffff" fill-opacity="1"><g transform="translate(269.172065, 209.833039)"><g><path d="M 8.199219 -11.851562 L 1.554688 -11.851562 C 1.4375 -11.851562 1.152344 -11.808594 1.152344 -11.347656 L 1.152344 -10.210938 C 1.152344 -9.765625 1.4375 -9.722656 1.554688 -9.722656 L 7.824219 -9.722656 C 8.183594 -9.722656 8.441406 -9.621094 8.585938 -9.40625 C 8.746094 -9.191406 8.816406 -8.84375 8.816406 -8.371094 C 8.816406 -7.894531 8.746094 -7.550781 8.585938 -7.335938 C 8.441406 -7.121094 8.183594 -7.019531 7.824219 -7.019531 L 1.554688 -7.019531 C 1.4375 -7.019531 1.152344 -6.976562 1.152344 -6.53125 L 1.152344 -0.488281 C 1.152344 -0.0429688 1.4375 0.015625 1.554688 0.015625 L 2.875 0.015625 C 2.992188 0.015625 3.28125 -0.0429688 3.28125 -0.488281 L 3.28125 -4.890625 L 8.199219 -4.90625 C 9.175781 -4.90625 9.882812 -5.207031 10.3125 -5.8125 C 10.742188 -6.414062 10.945312 -7.277344 10.945312 -8.414062 L 10.945312 -8.328125 C 10.945312 -9.476562 10.742188 -10.339844 10.3125 -10.929688 C 9.882812 -11.550781 9.175781 -11.851562 8.199219 -11.851562 Z M 8.199219 -11.851562 "/></g></g></g><g fill="#ffffff" fill-opacity="1"><g transform="translate(281.987396, 209.833039)"><g><path d="M 9.792969 -2.574219 L 4.730469 -2.574219 C 4.429688 -2.574219 4.183594 -2.617188 3.984375 -2.675781 C 3.796875 -2.746094 3.667969 -2.847656 3.550781 -2.992188 C 3.4375 -3.148438 3.351562 -3.367188 3.308594 -3.640625 C 3.292969 -3.710938 3.292969 -3.8125 3.28125 -3.882812 C 3.28125 -3.882812 3.292969 -4.917969 3.308594 -4.917969 L 9.738281 -4.917969 C 9.851562 -4.917969 10.140625 -4.976562 10.140625 -5.421875 L 10.140625 -6.558594 C 10.140625 -7.003906 9.851562 -7.046875 9.738281 -7.046875 L 2.316406 -7.035156 C 1.898438 -7.003906 1.539062 -6.789062 1.335938 -6.429688 C 1.265625 -6.3125 1.207031 -6.199219 1.179688 -6.070312 L 1.152344 -4.257812 L 1.152344 -4.183594 C 1.164062 -3.507812 1.238281 -2.933594 1.335938 -2.460938 C 1.46875 -1.882812 1.683594 -1.410156 1.957031 -1.050781 C 2.242188 -0.675781 2.617188 -0.417969 3.078125 -0.257812 C 3.523438 -0.0859375 4.054688 -0.015625 4.6875 -0.015625 L 9.792969 -0.015625 C 9.925781 -0.015625 10.210938 -0.0585938 10.210938 -0.503906 L 10.210938 -2.085938 C 10.210938 -2.53125 9.925781 -2.574219 9.792969 -2.574219 Z M 9.808594 -11.878906 L 1.539062 -11.878906 C 1.425781 -11.878906 1.152344 -11.824219 1.152344 -11.363281 L 1.152344 -10.242188 C 1.152344 -9.792969 1.425781 -9.75 1.539062 -9.75 L 9.808594 -9.738281 C 9.925781 -9.738281 10.210938 -9.792969 10.210938 -10.242188 L 10.210938 -11.375 C 10.210938 -11.824219 9.925781 -11.878906 9.808594 -11.878906 Z M 9.808594 -11.878906 "/></g></g></g><g fill="#ffffff" fill-opacity="1"><g transform="translate(294.069195, 209.833039)"><g><path d="M 10.960938 -8.414062 C 10.960938 -8.398438 10.960938 -8.386719 10.960938 -8.371094 C 10.960938 -8.355469 10.960938 -8.34375 10.960938 -8.328125 Z M 11.234375 -0.617188 L 8.714844 -4.933594 C 9.421875 -5.019531 9.96875 -5.320312 10.328125 -5.8125 C 10.730469 -6.402344 10.945312 -7.25 10.960938 -8.371094 C 10.945312 -9.492188 10.730469 -10.339844 10.328125 -10.929688 C 9.894531 -11.550781 9.175781 -11.851562 8.199219 -11.851562 L 1.566406 -11.851562 C 1.4375 -11.851562 1.152344 -11.808594 1.152344 -11.347656 L 1.152344 -10.210938 C 1.152344 -9.765625 1.4375 -9.722656 1.566406 -9.722656 L 7.824219 -9.722656 C 8.199219 -9.722656 8.441406 -9.621094 8.585938 -9.40625 C 8.746094 -9.191406 8.816406 -8.84375 8.816406 -8.371094 C 8.816406 -7.894531 8.746094 -7.550781 8.585938 -7.335938 C 8.441406 -7.121094 8.199219 -7.019531 7.824219 -7.019531 L 1.566406 -7.019531 C 1.4375 -7.019531 1.152344 -6.976562 1.152344 -6.53125 L 1.152344 -0.488281 C 1.152344 -0.0429688 1.4375 0.015625 1.566406 0.015625 L 2.875 0.015625 C 3.007812 0.015625 3.28125 -0.0429688 3.28125 -0.488281 L 3.28125 -4.890625 L 6.3125 -4.890625 L 8.917969 -0.273438 C 8.976562 -0.1875 9.019531 -0.113281 9.074219 -0.0703125 C 9.148438 -0.015625 9.25 0.015625 9.378906 0.015625 L 10.960938 0.015625 C 11.132812 0.015625 11.261719 -0.101562 11.289062 -0.273438 C 11.304688 -0.417969 11.289062 -0.53125 11.234375 -0.617188 Z M 11.234375 -0.617188 "/></g></g></g></svg>