<svg xmlns="http://www.w3.org/2000/svg" xmlns:xlink="http://www.w3.org/1999/xlink" width="500" zoomAndPan="magnify" viewBox="0 0 375 374.999991" height="500" preserveAspectRatio="xMidYMid meet" version="1.0"><defs><g/><clipPath id="5d626ac11d"><path d="M 39 146.023438 L 119.367188 146.023438 L 119.367188 167 L 39 167 Z M 39 146.023438 " clip-rule="nonzero"/></clipPath><clipPath id="928c42c6d5"><path d="M 61 170 L 119.367188 170 L 119.367188 189 L 61 189 Z M 61 170 " clip-rule="nonzero"/></clipPath><clipPath id="4566956391"><path d="M 21.867188 183 L 119.367188 183 L 119.367188 205 L 21.867188 205 Z M 21.867188 183 " clip-rule="nonzero"/></clipPath><clipPath id="67b06e0d22"><path d="M 43 208 L 119.367188 208 L 119.367188 229.273438 L 43 229.273438 Z M 43 208 " clip-rule="nonzero"/></clipPath></defs><g clip-path="url(#5d626ac11d)"><path fill="#d0eff2" d="M 48.472656 164.28125 C 53.0625 164.28125 56.832031 160.867188 57.445312 156.429688 L 72.9375 156.429688 L 79.5625 166.011719 C 79.820312 166.371094 80.175781 166.523438 80.582031 166.523438 L 118.144531 166.523438 C 118.808594 166.523438 119.367188 165.960938 119.367188 165.300781 C 119.367188 164.636719 118.808594 164.078125 118.144531 164.078125 L 81.195312 164.078125 L 74.570312 154.496094 C 74.3125 154.136719 73.957031 153.984375 73.550781 153.984375 L 57.394531 153.984375 C 56.78125 149.550781 53.011719 146.136719 48.421875 146.136719 C 43.429688 146.136719 39.351562 150.214844 39.351562 155.207031 C 39.351562 160.203125 43.480469 164.28125 48.472656 164.28125 Z M 48.472656 148.632812 C 52.09375 148.632812 55.046875 151.589844 55.046875 155.207031 C 55.046875 158.828125 52.09375 161.78125 48.472656 161.78125 C 44.855469 161.78125 41.898438 158.828125 41.898438 155.207031 C 41.898438 151.589844 44.804688 148.632812 48.472656 148.632812 Z M 48.472656 148.632812 " fill-opacity="1" fill-rule="nonzero"/></g><g clip-path="url(#928c42c6d5)"><path fill="#d0eff2" d="M 118.144531 178.246094 L 79.054688 178.246094 C 78.441406 173.8125 74.671875 170.398438 70.082031 170.398438 C 65.089844 170.398438 61.011719 174.472656 61.011719 179.46875 C 61.011719 184.464844 65.089844 188.542969 70.082031 188.542969 C 74.671875 188.542969 78.441406 185.128906 79.054688 180.691406 L 118.144531 180.691406 C 118.808594 180.691406 119.367188 180.132812 119.367188 179.46875 C 119.367188 178.808594 118.808594 178.246094 118.144531 178.246094 Z M 70.082031 186.097656 C 66.464844 186.097656 63.507812 183.140625 63.507812 179.519531 C 63.507812 175.902344 66.464844 172.894531 70.082031 172.894531 C 73.703125 172.894531 76.660156 175.851562 76.660156 179.46875 C 76.660156 183.140625 73.703125 186.097656 70.082031 186.097656 Z M 70.082031 186.097656 " fill-opacity="1" fill-rule="nonzero"/></g><g clip-path="url(#4566956391)"><path fill="#d0eff2" d="M 118.144531 193.945312 L 84.046875 193.945312 C 83.640625 193.945312 83.234375 194.148438 82.976562 194.503906 L 78.1875 202.152344 L 57.1875 202.152344 L 51.992188 192.46875 C 51.785156 192.058594 51.378906 191.804688 50.921875 191.804688 L 39.910156 191.804688 C 39.300781 187.371094 35.527344 183.953125 30.941406 183.953125 C 25.945312 183.953125 21.867188 188.03125 21.867188 193.027344 C 21.867188 198.023438 25.945312 202.101562 30.941406 202.101562 C 35.527344 202.101562 39.300781 198.683594 39.910156 194.25 L 50.15625 194.25 L 55.355469 203.933594 C 55.558594 204.34375 55.964844 204.597656 56.425781 204.597656 L 78.851562 204.597656 C 79.257812 204.597656 79.664062 204.394531 79.921875 204.035156 L 84.710938 196.390625 L 118.09375 196.390625 C 118.757812 196.390625 119.316406 195.832031 119.316406 195.167969 C 119.367188 194.503906 118.808594 193.945312 118.144531 193.945312 Z M 30.941406 199.703125 C 27.324219 199.703125 24.367188 196.75 24.367188 193.128906 C 24.367188 189.511719 27.324219 186.554688 30.941406 186.554688 C 34.558594 186.554688 37.515625 189.511719 37.515625 193.128906 C 37.566406 196.75 34.609375 199.703125 30.941406 199.703125 Z M 30.941406 199.703125 " fill-opacity="1" fill-rule="nonzero"/></g><g clip-path="url(#67b06e0d22)"><path fill="#d0eff2" d="M 118.144531 208.371094 L 98.472656 208.371094 C 98.015625 208.371094 97.605469 208.625 97.402344 208.980469 L 91.59375 218.871094 L 61.929688 218.871094 C 61.316406 214.433594 57.546875 211.019531 52.957031 211.019531 C 47.964844 211.019531 43.886719 215.097656 43.886719 220.09375 C 43.886719 225.085938 47.964844 229.164062 52.957031 229.164062 C 57.546875 229.164062 61.316406 225.75 61.929688 221.316406 L 92.304688 221.316406 C 92.765625 221.316406 93.171875 221.0625 93.375 220.703125 L 99.1875 210.816406 L 118.144531 210.816406 C 118.808594 210.816406 119.367188 210.253906 119.367188 209.59375 C 119.367188 208.929688 118.808594 208.371094 118.144531 208.371094 Z M 52.957031 226.71875 C 49.339844 226.71875 46.382812 223.761719 46.382812 220.144531 C 46.382812 216.523438 49.339844 213.570312 52.957031 213.570312 C 56.578125 213.570312 59.535156 216.523438 59.535156 220.144531 C 59.585938 223.761719 56.628906 226.71875 52.957031 226.71875 Z M 52.957031 226.71875 " fill-opacity="1" fill-rule="nonzero"/></g><g fill="#d0eff2" fill-opacity="1"><g transform="translate(128.380294, 184.64392)"><g><path d="M 16.410156 -19.570312 L 7.765625 -19.570312 C 6.722656 -19.570312 5.820312 -19.429688 5.082031 -19.167969 C 4.324219 -18.882812 3.703125 -18.429688 3.253906 -17.835938 C 2.777344 -17.242188 2.421875 -16.460938 2.207031 -15.507812 C 1.996094 -14.582031 1.898438 -13.441406 1.898438 -12.136719 L 1.898438 -7.433594 C 1.898438 -6.105469 1.996094 -4.964844 2.207031 -4.015625 C 2.421875 -3.085938 2.777344 -2.304688 3.253906 -1.6875 C 3.730469 -1.09375 4.347656 -0.640625 5.082031 -0.378906 C 5.820312 -0.117188 6.722656 0.0234375 7.765625 0.0234375 L 16.410156 0.0234375 C 16.601562 0.0234375 17.078125 -0.0703125 17.078125 -0.808594 L 17.078125 -2.683594 C 17.078125 -3.421875 16.601562 -3.515625 16.410156 -3.515625 L 7.886719 -3.515625 C 7.386719 -3.515625 6.957031 -3.5625 6.648438 -3.679688 C 6.339844 -3.777344 6.128906 -3.941406 5.9375 -4.203125 C 5.746094 -4.441406 5.628906 -4.796875 5.535156 -5.25 C 5.460938 -5.722656 5.414062 -6.316406 5.414062 -7.03125 L 5.414062 -12.5625 C 5.414062 -13.277344 5.460938 -13.871094 5.535156 -14.320312 C 5.628906 -14.773438 5.746094 -15.105469 5.9375 -15.367188 C 6.128906 -15.628906 6.339844 -15.792969 6.648438 -15.890625 C 6.957031 -16.007812 7.386719 -16.054688 7.886719 -16.054688 L 16.410156 -16.054688 C 16.601562 -16.054688 17.078125 -16.148438 17.078125 -16.910156 L 17.078125 -18.738281 C 17.078125 -19.476562 16.601562 -19.570312 16.410156 -19.570312 Z M 16.410156 -19.570312 "/></g></g></g><g fill="#d0eff2" fill-opacity="1"><g transform="translate(148.539688, 184.64392)"><g><path d="M 18.097656 -13.894531 C 18.097656 -13.871094 18.097656 -13.847656 18.097656 -13.824219 C 18.097656 -13.800781 18.097656 -13.773438 18.097656 -13.75 Z M 18.550781 -1.019531 L 14.394531 -8.144531 C 15.554688 -8.289062 16.460938 -8.789062 17.054688 -9.59375 C 17.71875 -10.570312 18.074219 -11.96875 18.097656 -13.824219 C 18.074219 -15.675781 17.71875 -17.078125 17.054688 -18.050781 C 16.339844 -19.070312 15.152344 -19.570312 13.539062 -19.570312 L 2.589844 -19.570312 C 2.375 -19.570312 1.898438 -19.5 1.898438 -18.738281 L 1.898438 -16.863281 C 1.898438 -16.125 2.375 -16.054688 2.589844 -16.054688 L 12.921875 -16.054688 C 13.539062 -16.054688 13.941406 -15.890625 14.179688 -15.53125 C 14.441406 -15.175781 14.558594 -14.605469 14.558594 -13.824219 C 14.558594 -13.039062 14.441406 -12.46875 14.179688 -12.113281 C 13.941406 -11.757812 13.539062 -11.589844 12.921875 -11.589844 L 2.589844 -11.589844 C 2.375 -11.589844 1.898438 -11.519531 1.898438 -10.78125 L 1.898438 -0.808594 C 1.898438 -0.0703125 2.375 0.0234375 2.589844 0.0234375 L 4.75 0.0234375 C 4.964844 0.0234375 5.414062 -0.0703125 5.414062 -0.808594 L 5.414062 -8.074219 L 10.425781 -8.074219 L 14.726562 -0.453125 C 14.820312 -0.308594 14.890625 -0.191406 14.988281 -0.117188 C 15.105469 -0.0234375 15.273438 0.0234375 15.484375 0.0234375 L 18.097656 0.0234375 C 18.382812 0.0234375 18.597656 -0.167969 18.644531 -0.453125 C 18.667969 -0.6875 18.644531 -0.878906 18.550781 -1.019531 Z M 18.550781 -1.019531 "/></g></g></g><g fill="#d0eff2" fill-opacity="1"><g transform="translate(170.289992, 184.64392)"><g><path d="M 19.476562 -19.570312 L 16.839844 -19.570312 C 16.625 -19.570312 16.339844 -19.5 16.148438 -19.144531 L 10.925781 -9.617188 L 5.746094 -19.117188 C 5.558594 -19.5 5.273438 -19.570312 5.058594 -19.570312 L 2.351562 -19.570312 C 2.136719 -19.570312 1.972656 -19.453125 1.921875 -19.238281 C 1.875 -19.070312 1.898438 -18.882812 1.996094 -18.714844 L 9.121094 -6.007812 L 9.121094 -0.808594 C 9.121094 -0.0703125 9.59375 0 9.785156 0 L 11.96875 0 C 12.160156 0 12.636719 -0.0703125 12.636719 -0.808594 L 12.636719 -6.007812 L 19.832031 -18.714844 C 19.925781 -18.882812 19.949219 -19.070312 19.902344 -19.261719 C 19.832031 -19.453125 19.664062 -19.570312 19.476562 -19.570312 Z M 19.476562 -19.570312 "/></g></g></g><g fill="#d0eff2" fill-opacity="1"><g transform="translate(193.298769, 184.64392)"><g><path d="M 13.371094 -11.683594 L 6.246094 -11.683594 C 5.890625 -11.683594 5.4375 -11.828125 5.4375 -12.992188 L 5.4375 -14.75 C 5.4375 -15.175781 5.511719 -15.507812 5.628906 -15.746094 C 5.722656 -15.890625 5.867188 -16.054688 6.269531 -16.054688 L 15.9375 -16.054688 C 16.125 -16.054688 16.601562 -16.125 16.601562 -16.863281 L 16.601562 -18.761719 C 16.601562 -19.5 16.125 -19.570312 15.9375 -19.570312 L 5.699219 -19.570312 C 4.394531 -19.570312 3.445312 -19.144531 2.828125 -18.265625 C 2.207031 -17.410156 1.898438 -16.269531 1.898438 -14.890625 L 1.898438 -13.085938 C 1.898438 -11.449219 2.234375 -10.117188 2.828125 -9.285156 C 3.5625 -8.3125 4.65625 -8.171875 5.652344 -8.171875 L 12.777344 -8.171875 C 13.132812 -8.171875 13.609375 -8.027344 13.609375 -6.863281 L 13.609375 -4.820312 C 13.609375 -4.394531 13.539062 -4.0625 13.394531 -3.824219 C 13.300781 -3.679688 13.15625 -3.515625 12.753906 -3.515625 L 2.613281 -3.515625 C 2.398438 -3.515625 1.921875 -3.445312 1.921875 -2.707031 L 1.921875 -0.808594 C 1.921875 -0.0703125 2.398438 0 2.613281 0 L 13.324219 0 C 14.628906 0 15.605469 -0.453125 16.222656 -1.328125 C 16.816406 -2.183594 17.125 -3.300781 17.125 -4.679688 L 17.125 -6.769531 C 17.125 -8.3125 16.816406 -9.523438 16.199219 -10.378906 C 15.554688 -11.234375 14.605469 -11.683594 13.371094 -11.683594 Z M 13.371094 -11.683594 "/></g></g></g><g fill="#d0eff2" fill-opacity="1"><g transform="translate(213.505664, 184.64392)"><g><path d="M 18.3125 -19.570312 L 2.589844 -19.570312 C 2.375 -19.570312 1.898438 -19.5 1.898438 -18.761719 L 1.898438 -16.910156 C 1.898438 -16.125 2.375 -16.054688 2.589844 -16.054688 L 8.691406 -16.054688 L 8.691406 -0.808594 C 8.691406 -0.0703125 9.167969 0 9.359375 0 L 11.542969 0 C 11.757812 0 12.207031 -0.0703125 12.207031 -0.808594 L 12.207031 -16.054688 L 18.3125 -16.054688 C 18.523438 -16.054688 19 -16.125 19 -16.910156 L 19 -18.761719 C 19 -19.5 18.523438 -19.570312 18.3125 -19.570312 Z M 18.3125 -19.570312 "/></g></g></g><g fill="#d0eff2" fill-opacity="1"><g transform="translate(235.588402, 184.64392)"><g><path d="M 19.476562 -19.570312 L 16.839844 -19.570312 C 16.625 -19.570312 16.339844 -19.5 16.148438 -19.144531 L 10.925781 -9.617188 L 5.746094 -19.117188 C 5.558594 -19.5 5.273438 -19.570312 5.058594 -19.570312 L 2.351562 -19.570312 C 2.136719 -19.570312 1.972656 -19.453125 1.921875 -19.238281 C 1.875 -19.070312 1.898438 -18.882812 1.996094 -18.714844 L 9.121094 -6.007812 L 9.121094 -0.808594 C 9.121094 -0.0703125 9.59375 0 9.785156 0 L 11.96875 0 C 12.160156 0 12.636719 -0.0703125 12.636719 -0.808594 L 12.636719 -6.007812 L 19.832031 -18.714844 C 19.925781 -18.882812 19.949219 -19.070312 19.902344 -19.261719 C 19.832031 -19.453125 19.664062 -19.570312 19.476562 -19.570312 Z M 19.476562 -19.570312 "/></g></g></g><g fill="#d0eff2" fill-opacity="1"><g transform="translate(258.597179, 184.64392)"><g><path d="M 14.628906 -17.363281 C 14.582031 -17.480469 14.535156 -17.621094 14.488281 -17.71875 C 14.109375 -18.953125 12.96875 -19.832031 11.660156 -19.832031 C 11.066406 -19.832031 10.496094 -19.664062 10.023438 -19.332031 C 9.878906 -19.261719 9.761719 -19.167969 9.667969 -19.09375 C 9.308594 -18.785156 8.953125 -18.214844 8.621094 -17.363281 L 1.996094 -0.902344 C 1.921875 -0.6875 1.898438 -0.476562 1.949219 -0.332031 C 1.972656 -0.191406 2.089844 0.0234375 2.46875 0.0234375 L 5.082031 0.0234375 C 5.390625 0.0234375 5.628906 -0.167969 5.746094 -0.476562 L 7.101562 -3.871094 L 12.300781 -3.871094 C 12.5625 -3.871094 12.800781 -3.988281 12.921875 -4.203125 C 13.0625 -4.394531 13.085938 -4.65625 13.015625 -4.894531 L 12.160156 -7.007812 C 12.042969 -7.292969 11.78125 -7.480469 11.472656 -7.480469 L 8.527344 -7.480469 L 11.566406 -15.175781 C 11.589844 -15.222656 11.613281 -15.246094 11.613281 -15.246094 L 11.707031 -15.246094 C 11.707031 -15.246094 11.707031 -15.246094 11.734375 -15.199219 L 17.621094 -0.5 C 17.742188 -0.167969 17.980469 0.0234375 18.3125 0.0234375 L 20.851562 0.0234375 C 21.234375 0.0234375 21.328125 -0.214844 21.375 -0.332031 C 21.421875 -0.476562 21.398438 -0.6875 21.304688 -0.902344 Z M 14.628906 -17.363281 "/></g></g></g><g fill="#d0eff2" fill-opacity="1"><g transform="translate(283.101892, 184.64392)"><g><path d="M 18.714844 -19.570312 L 16.601562 -19.570312 C 16.386719 -19.570312 15.9375 -19.5 15.9375 -18.738281 L 15.9375 -4.464844 C 15.9375 -4.441406 15.9375 -4.441406 15.9375 -4.417969 L 15.816406 -4.417969 C 15.792969 -4.417969 15.769531 -4.417969 15.746094 -4.488281 L 8.242188 -17.835938 C 8.050781 -18.191406 7.886719 -18.476562 7.71875 -18.691406 C 7.550781 -18.929688 7.386719 -19.117188 7.21875 -19.238281 C 7.03125 -19.378906 6.816406 -19.476562 6.554688 -19.523438 C 6.316406 -19.546875 6.03125 -19.570312 5.722656 -19.570312 L 3.941406 -19.570312 C 3.253906 -19.570312 2.730469 -19.332031 2.398438 -18.90625 C 2.066406 -18.453125 1.898438 -17.671875 1.898438 -16.507812 L 1.898438 -0.808594 C 1.898438 -0.0703125 2.375 0.0234375 2.589844 0.0234375 L 4.703125 0.0234375 C 4.917969 0.0234375 5.367188 -0.0703125 5.367188 -0.808594 L 5.367188 -15.082031 C 5.367188 -15.105469 5.367188 -15.128906 5.367188 -15.128906 L 5.488281 -15.128906 C 5.488281 -15.128906 5.511719 -15.128906 5.558594 -15.058594 L 13.085938 -1.710938 C 13.277344 -1.328125 13.464844 -1.046875 13.632812 -0.832031 C 13.800781 -0.59375 13.964844 -0.425781 14.15625 -0.308594 C 14.34375 -0.167969 14.558594 -0.09375 14.796875 -0.046875 C 15.011719 0 15.273438 0.0234375 15.605469 0.0234375 L 17.335938 0.0234375 C 18.027344 0.0234375 18.550781 -0.214844 18.882812 -0.664062 C 19.214844 -1.09375 19.378906 -1.875 19.378906 -3.039062 L 19.378906 -18.738281 C 19.378906 -19.5 18.90625 -19.570312 18.714844 -19.570312 Z M 18.714844 -19.570312 "/></g></g></g><g fill="#d0eff2" fill-opacity="1"><g transform="translate(305.564538, 184.64392)"><g><path d="M 18.714844 -19.570312 L 16.601562 -19.570312 C 16.386719 -19.570312 15.9375 -19.5 15.9375 -18.738281 L 15.9375 -4.464844 C 15.9375 -4.441406 15.9375 -4.441406 15.9375 -4.417969 L 15.816406 -4.417969 C 15.792969 -4.417969 15.769531 -4.417969 15.746094 -4.488281 L 8.242188 -17.835938 C 8.050781 -18.191406 7.886719 -18.476562 7.71875 -18.691406 C 7.550781 -18.929688 7.386719 -19.117188 7.21875 -19.238281 C 7.03125 -19.378906 6.816406 -19.476562 6.554688 -19.523438 C 6.316406 -19.546875 6.03125 -19.570312 5.722656 -19.570312 L 3.941406 -19.570312 C 3.253906 -19.570312 2.730469 -19.332031 2.398438 -18.90625 C 2.066406 -18.453125 1.898438 -17.671875 1.898438 -16.507812 L 1.898438 -0.808594 C 1.898438 -0.0703125 2.375 0.0234375 2.589844 0.0234375 L 4.703125 0.0234375 C 4.917969 0.0234375 5.367188 -0.0703125 5.367188 -0.808594 L 5.367188 -15.082031 C 5.367188 -15.105469 5.367188 -15.128906 5.367188 -15.128906 L 5.488281 -15.128906 C 5.488281 -15.128906 5.511719 -15.128906 5.558594 -15.058594 L 13.085938 -1.710938 C 13.277344 -1.328125 13.464844 -1.046875 13.632812 -0.832031 C 13.800781 -0.59375 13.964844 -0.425781 14.15625 -0.308594 C 14.34375 -0.167969 14.558594 -0.09375 14.796875 -0.046875 C 15.011719 0 15.273438 0.0234375 15.605469 0.0234375 L 17.335938 0.0234375 C 18.027344 0.0234375 18.550781 -0.214844 18.882812 -0.664062 C 19.214844 -1.09375 19.378906 -1.875 19.378906 -3.039062 L 19.378906 -18.738281 C 19.378906 -19.5 18.90625 -19.570312 18.714844 -19.570312 Z M 18.714844 -19.570312 "/></g></g></g><g fill="#d0eff2" fill-opacity="1"><g transform="translate(328.027184, 184.64392)"><g><path d="M 18.074219 -17.835938 C 17.597656 -18.429688 16.980469 -18.882812 16.222656 -19.167969 C 15.484375 -19.429688 14.582031 -19.570312 13.539062 -19.570312 L 7.742188 -19.570312 C 6.699219 -19.570312 5.820312 -19.429688 5.082031 -19.167969 C 4.324219 -18.882812 3.703125 -18.429688 3.230469 -17.835938 C 2.777344 -17.242188 2.421875 -16.460938 2.207031 -15.507812 C 1.996094 -14.582031 1.898438 -13.464844 1.898438 -12.136719 L 1.898438 -7.433594 C 1.898438 -6.105469 1.996094 -4.964844 2.207031 -4.039062 C 2.421875 -3.085938 2.777344 -2.304688 3.230469 -1.710938 C 3.703125 -1.09375 4.324219 -0.640625 5.082031 -0.378906 C 5.796875 -0.117188 6.699219 0.0234375 7.742188 0.0234375 L 13.539062 0.0234375 C 14.582031 0.0234375 15.484375 -0.117188 16.222656 -0.378906 C 16.980469 -0.640625 17.597656 -1.09375 18.074219 -1.6875 C 18.550781 -2.304688 18.882812 -3.085938 19.09375 -4.039062 C 19.285156 -4.964844 19.402344 -6.105469 19.402344 -7.433594 L 19.402344 -12.136719 C 19.402344 -13.441406 19.285156 -14.582031 19.09375 -15.507812 C 18.882812 -16.460938 18.550781 -17.242188 18.074219 -17.835938 Z M 15.867188 -12.539062 L 15.867188 -7.007812 C 15.867188 -6.316406 15.839844 -5.722656 15.746094 -5.25 C 15.675781 -4.820312 15.53125 -4.441406 15.34375 -4.203125 C 15.175781 -3.941406 14.9375 -3.777344 14.628906 -3.679688 C 14.320312 -3.5625 13.917969 -3.515625 13.417969 -3.515625 L 7.863281 -3.515625 C 7.363281 -3.515625 6.957031 -3.5625 6.648438 -3.679688 C 6.339844 -3.777344 6.105469 -3.941406 5.9375 -4.203125 C 5.746094 -4.441406 5.628906 -4.820312 5.535156 -5.25 C 5.460938 -5.722656 5.414062 -6.316406 5.414062 -7.007812 L 5.414062 -12.539062 C 5.414062 -13.230469 5.460938 -13.824219 5.535156 -14.296875 C 5.628906 -14.75 5.746094 -15.105469 5.9375 -15.367188 C 6.105469 -15.605469 6.339844 -15.769531 6.648438 -15.890625 C 6.957031 -15.984375 7.363281 -16.054688 7.863281 -16.054688 L 13.417969 -16.054688 C 13.917969 -16.054688 14.320312 -15.984375 14.628906 -15.890625 C 14.9375 -15.769531 15.175781 -15.605469 15.34375 -15.367188 C 15.53125 -15.105469 15.675781 -14.75 15.746094 -14.296875 C 15.839844 -13.824219 15.867188 -13.230469 15.867188 -12.539062 Z M 15.867188 -12.539062 "/></g></g></g><g fill="#d0eff2" fill-opacity="1"><g transform="translate(128.380294, 213.596917)"><g><path d="M 21.648438 -14.050781 L 19.796875 -14.050781 C 19.582031 -14.050781 19.410156 -13.917969 19.3125 -13.679688 L 16.132812 -3.597656 C 16.117188 -3.5625 16.117188 -3.5625 16.117188 -3.5625 L 16.050781 -3.546875 C 16.050781 -3.546875 16.035156 -3.5625 16.035156 -3.578125 L 13.09375 -13.679688 C 13.007812 -13.917969 12.839844 -14.050781 12.621094 -14.050781 L 10.722656 -14.050781 C 10.503906 -14.050781 10.335938 -13.917969 10.234375 -13.679688 L 7.058594 -3.597656 C 7.042969 -3.5625 7.042969 -3.5625 7.042969 -3.5625 L 6.976562 -3.546875 C 6.976562 -3.546875 6.957031 -3.5625 6.957031 -3.578125 L 4.015625 -13.679688 C 3.933594 -13.917969 3.765625 -14.050781 3.53125 -14.050781 L 1.730469 -14.050781 C 1.460938 -14.050781 1.394531 -13.882812 1.378906 -13.796875 C 1.34375 -13.679688 1.34375 -13.546875 1.410156 -13.394531 L 4.890625 -1.746094 C 4.925781 -1.664062 4.976562 -1.5625 5.007812 -1.496094 C 5.261719 -0.621094 6.085938 0 7.007812 0 C 7.429688 0 7.832031 -0.117188 8.167969 -0.351562 C 8.269531 -0.402344 8.335938 -0.46875 8.421875 -0.519531 C 8.65625 -0.738281 8.90625 -1.144531 9.160156 -1.765625 L 11.648438 -9.496094 L 13.964844 -1.746094 C 14 -1.664062 14.050781 -1.5625 14.085938 -1.496094 C 14.335938 -0.621094 15.160156 0 16.085938 0 C 16.503906 0 16.90625 -0.117188 17.242188 -0.351562 C 17.34375 -0.402344 17.429688 -0.46875 17.496094 -0.519531 C 17.75 -0.738281 17.984375 -1.144531 18.234375 -1.765625 L 21.984375 -13.394531 C 22.035156 -13.546875 22.050781 -13.679688 22.015625 -13.796875 C 22 -13.898438 21.917969 -14.050781 21.648438 -14.050781 Z M 21.648438 -14.050781 "/></g></g></g><g fill="#d0eff2" fill-opacity="1"><g transform="translate(152.616155, 213.596917)"><g><path d="M 11.445312 -3.007812 L 5.53125 -3.007812 C 5.175781 -3.007812 4.890625 -3.058594 4.65625 -3.125 C 4.4375 -3.210938 4.285156 -3.328125 4.152344 -3.496094 C 4.015625 -3.679688 3.917969 -3.933594 3.867188 -4.253906 C 3.847656 -4.335938 3.847656 -4.453125 3.832031 -4.539062 C 3.832031 -4.539062 3.847656 -5.746094 3.867188 -5.746094 L 11.378906 -5.746094 C 11.511719 -5.746094 11.847656 -5.816406 11.847656 -6.335938 L 11.847656 -7.664062 C 11.847656 -8.183594 11.511719 -8.234375 11.378906 -8.234375 L 2.707031 -8.21875 C 2.21875 -8.183594 1.796875 -7.933594 1.5625 -7.511719 C 1.480469 -7.378906 1.410156 -7.242188 1.378906 -7.09375 L 1.34375 -4.976562 L 1.34375 -4.890625 C 1.363281 -4.101562 1.445312 -3.429688 1.5625 -2.875 C 1.714844 -2.203125 1.964844 -1.648438 2.285156 -1.226562 C 2.621094 -0.789062 3.058594 -0.488281 3.597656 -0.300781 C 4.117188 -0.101562 4.738281 -0.015625 5.480469 -0.015625 L 11.445312 -0.015625 C 11.597656 -0.015625 11.933594 -0.0664062 11.933594 -0.589844 L 11.933594 -2.4375 C 11.933594 -2.957031 11.597656 -3.007812 11.445312 -3.007812 Z M 11.460938 -13.882812 L 1.796875 -13.882812 C 1.664062 -13.882812 1.34375 -13.816406 1.34375 -13.277344 L 1.34375 -11.964844 C 1.34375 -11.445312 1.664062 -11.394531 1.796875 -11.394531 L 11.460938 -11.378906 C 11.597656 -11.378906 11.933594 -11.445312 11.933594 -11.964844 L 11.933594 -13.292969 C 11.933594 -13.816406 11.597656 -13.882812 11.460938 -13.882812 Z M 11.460938 -13.882812 "/></g></g></g><g fill="#d0eff2" fill-opacity="1"><g transform="translate(166.734142, 213.596917)"><g><path d="M 12.976562 -9.5625 L 12.976562 -10.503906 C 12.976562 -11.597656 12.757812 -12.4375 12.320312 -12.992188 C 11.882812 -13.5625 11.144531 -13.847656 10.117188 -13.847656 L 2.6875 -13.847656 L 2.6875 -13.832031 C 2.203125 -13.796875 1.78125 -13.53125 1.53125 -13.125 C 1.460938 -12.992188 1.394531 -12.839844 1.363281 -12.707031 L 1.34375 -1.226562 C 1.378906 -1.042969 1.445312 -0.855469 1.53125 -0.707031 C 1.796875 -0.253906 2.285156 0.015625 2.808594 0.015625 L 10.371094 0.015625 C 10.875 0.015625 11.292969 -0.0664062 11.628906 -0.234375 C 11.984375 -0.402344 12.269531 -0.636719 12.472656 -0.957031 C 12.6875 -1.261719 12.824219 -1.628906 12.925781 -2.066406 C 13.007812 -2.488281 13.058594 -2.976562 13.058594 -3.496094 L 13.058594 -4.621094 C 13.058594 -5.730469 12.738281 -6.570312 12.132812 -7.125 C 12.707031 -7.699219 12.976562 -8.519531 12.976562 -9.5625 Z M 3.816406 -2.570312 L 3.816406 -11.261719 C 3.816406 -11.328125 3.832031 -11.363281 3.847656 -11.363281 L 9.679688 -11.363281 C 10 -11.363281 10.234375 -11.277344 10.371094 -11.125 C 10.503906 -10.976562 10.570312 -10.707031 10.570312 -10.351562 L 10.570312 -9.195312 C 10.570312 -8.875 10.503906 -8.621094 10.351562 -8.453125 C 10.21875 -8.300781 9.933594 -8.21875 9.496094 -8.21875 L 6.234375 -8.21875 C 5.933594 -8.21875 5.679688 -7.964844 5.679688 -7.664062 L 5.679688 -6.285156 C 5.679688 -5.964844 5.933594 -5.730469 6.234375 -5.730469 L 9.496094 -5.730469 C 9.933594 -5.730469 10.21875 -5.628906 10.371094 -5.460938 C 10.503906 -5.292969 10.589844 -5.023438 10.589844 -4.65625 L 10.589844 -3.511719 C 10.589844 -3.125 10.519531 -2.855469 10.386719 -2.707031 C 10.253906 -2.554688 10.015625 -2.488281 9.679688 -2.488281 L 3.832031 -2.488281 C 3.832031 -2.488281 3.816406 -2.503906 3.816406 -2.570312 Z M 3.816406 -2.570312 "/></g></g></g><g fill="#d0eff2" fill-opacity="1"><g transform="translate(181.978198, 213.596917)"><g/></g></g><g fill="#d0eff2" fill-opacity="1"><g transform="translate(191.457416, 213.596917)"><g><path d="M 12.824219 -10.722656 C 12.65625 -11.429688 12.371094 -12.015625 12.015625 -12.488281 C 11.648438 -12.941406 11.160156 -13.292969 10.589844 -13.511719 C 10.015625 -13.730469 9.34375 -13.847656 8.554688 -13.847656 L 2.6875 -13.847656 L 2.6875 -13.832031 C 2.203125 -13.796875 1.78125 -13.53125 1.53125 -13.125 C 1.460938 -12.992188 1.394531 -12.839844 1.363281 -12.707031 L 1.34375 -1.226562 C 1.378906 -1.042969 1.445312 -0.855469 1.53125 -0.707031 C 1.796875 -0.253906 2.285156 0.015625 2.808594 0.015625 L 8.554688 0.015625 C 9.34375 0.015625 10.035156 -0.101562 10.589844 -0.320312 C 11.160156 -0.539062 11.648438 -0.890625 12.015625 -1.363281 C 12.371094 -1.816406 12.65625 -2.402344 12.824219 -3.109375 C 12.992188 -3.816406 13.074219 -4.65625 13.074219 -5.597656 L 13.074219 -8.234375 C 13.074219 -9.175781 12.992188 -10.015625 12.824219 -10.722656 Z M 3.816406 -2.570312 L 3.816406 -11.261719 C 3.816406 -11.328125 3.832031 -11.363281 3.847656 -11.363281 L 8.503906 -11.363281 C 8.890625 -11.363281 9.226562 -11.3125 9.496094 -11.210938 C 9.765625 -11.109375 9.964844 -10.976562 10.117188 -10.757812 C 10.285156 -10.539062 10.402344 -10.253906 10.472656 -9.898438 C 10.539062 -9.511719 10.589844 -9.042969 10.589844 -8.488281 L 10.589844 -5.34375 C 10.589844 -4.789062 10.539062 -4.320312 10.472656 -3.949219 C 10.402344 -3.578125 10.285156 -3.292969 10.117188 -3.074219 C 9.964844 -2.875 9.765625 -2.722656 9.496094 -2.621094 C 9.226562 -2.519531 8.890625 -2.488281 8.503906 -2.488281 L 3.832031 -2.488281 C 3.832031 -2.488281 3.816406 -2.503906 3.816406 -2.570312 Z M 3.816406 -2.570312 "/></g></g></g><g fill="#d0eff2" fill-opacity="1"><g transform="translate(206.71827, 213.596917)"><g><path d="M 11.445312 -3.007812 L 5.53125 -3.007812 C 5.175781 -3.007812 4.890625 -3.058594 4.65625 -3.125 C 4.4375 -3.210938 4.285156 -3.328125 4.152344 -3.496094 C 4.015625 -3.679688 3.917969 -3.933594 3.867188 -4.253906 C 3.847656 -4.335938 3.847656 -4.453125 3.832031 -4.539062 C 3.832031 -4.539062 3.847656 -5.746094 3.867188 -5.746094 L 11.378906 -5.746094 C 11.511719 -5.746094 11.847656 -5.816406 11.847656 -6.335938 L 11.847656 -7.664062 C 11.847656 -8.183594 11.511719 -8.234375 11.378906 -8.234375 L 2.707031 -8.21875 C 2.21875 -8.183594 1.796875 -7.933594 1.5625 -7.511719 C 1.480469 -7.378906 1.410156 -7.242188 1.378906 -7.09375 L 1.34375 -4.976562 L 1.34375 -4.890625 C 1.363281 -4.101562 1.445312 -3.429688 1.5625 -2.875 C 1.714844 -2.203125 1.964844 -1.648438 2.285156 -1.226562 C 2.621094 -0.789062 3.058594 -0.488281 3.597656 -0.300781 C 4.117188 -0.101562 4.738281 -0.015625 5.480469 -0.015625 L 11.445312 -0.015625 C 11.597656 -0.015625 11.933594 -0.0664062 11.933594 -0.589844 L 11.933594 -2.4375 C 11.933594 -2.957031 11.597656 -3.007812 11.445312 -3.007812 Z M 11.460938 -13.882812 L 1.796875 -13.882812 C 1.664062 -13.882812 1.34375 -13.816406 1.34375 -13.277344 L 1.34375 -11.964844 C 1.34375 -11.445312 1.664062 -11.394531 1.796875 -11.394531 L 11.460938 -11.378906 C 11.597656 -11.378906 11.933594 -11.445312 11.933594 -11.964844 L 11.933594 -13.292969 C 11.933594 -13.816406 11.597656 -13.882812 11.460938 -13.882812 Z M 11.460938 -13.882812 "/></g></g></g><g fill="#d0eff2" fill-opacity="1"><g transform="translate(220.836256, 213.596917)"><g><path d="M 14.738281 -14.035156 L 12.890625 -14.035156 C 12.671875 -14.035156 12.503906 -13.917969 12.402344 -13.679688 L 8.285156 -3.277344 C 8.285156 -3.242188 8.269531 -3.242188 8.269531 -3.242188 L 8.203125 -3.226562 C 8.203125 -3.226562 8.203125 -3.242188 8.183594 -3.277344 L 4 -13.679688 C 3.933594 -13.917969 3.765625 -14.035156 3.53125 -14.035156 L 1.714844 -14.035156 C 1.460938 -14.035156 1.378906 -13.867188 1.363281 -13.796875 C 1.328125 -13.679688 1.34375 -13.546875 1.410156 -13.378906 L 6.117188 -1.746094 C 6.167969 -1.648438 6.203125 -1.5625 6.234375 -1.496094 C 6.488281 -0.605469 7.3125 0.015625 8.234375 0.015625 C 8.65625 0.015625 9.058594 -0.117188 9.394531 -0.351562 C 9.496094 -0.402344 9.578125 -0.453125 9.648438 -0.519531 C 9.898438 -0.738281 10.132812 -1.144531 10.386719 -1.746094 L 15.058594 -13.378906 C 15.125 -13.546875 15.144531 -13.679688 15.109375 -13.796875 C 15.074219 -13.882812 14.992188 -14.035156 14.738281 -14.035156 Z M 14.738281 -14.035156 "/></g></g></g><g fill="#d0eff2" fill-opacity="1"><g transform="translate(238.147591, 213.596917)"><g><path d="M 11.445312 -3.007812 L 5.53125 -3.007812 C 5.175781 -3.007812 4.890625 -3.058594 4.65625 -3.125 C 4.4375 -3.210938 4.285156 -3.328125 4.152344 -3.496094 C 4.015625 -3.679688 3.917969 -3.933594 3.867188 -4.253906 C 3.847656 -4.335938 3.847656 -4.453125 3.832031 -4.539062 C 3.832031 -4.539062 3.847656 -5.746094 3.867188 -5.746094 L 11.378906 -5.746094 C 11.511719 -5.746094 11.847656 -5.816406 11.847656 -6.335938 L 11.847656 -7.664062 C 11.847656 -8.183594 11.511719 -8.234375 11.378906 -8.234375 L 2.707031 -8.21875 C 2.21875 -8.183594 1.796875 -7.933594 1.5625 -7.511719 C 1.480469 -7.378906 1.410156 -7.242188 1.378906 -7.09375 L 1.34375 -4.976562 L 1.34375 -4.890625 C 1.363281 -4.101562 1.445312 -3.429688 1.5625 -2.875 C 1.714844 -2.203125 1.964844 -1.648438 2.285156 -1.226562 C 2.621094 -0.789062 3.058594 -0.488281 3.597656 -0.300781 C 4.117188 -0.101562 4.738281 -0.015625 5.480469 -0.015625 L 11.445312 -0.015625 C 11.597656 -0.015625 11.933594 -0.0664062 11.933594 -0.589844 L 11.933594 -2.4375 C 11.933594 -2.957031 11.597656 -3.007812 11.445312 -3.007812 Z M 11.460938 -13.882812 L 1.796875 -13.882812 C 1.664062 -13.882812 1.34375 -13.816406 1.34375 -13.277344 L 1.34375 -11.964844 C 1.34375 -11.445312 1.664062 -11.394531 1.796875 -11.394531 L 11.460938 -11.378906 C 11.597656 -11.378906 11.933594 -11.445312 11.933594 -11.964844 L 11.933594 -13.292969 C 11.933594 -13.816406 11.597656 -13.882812 11.460938 -13.882812 Z M 11.460938 -13.882812 "/></g></g></g><g fill="#d0eff2" fill-opacity="1"><g transform="translate(252.265578, 213.596917)"><g><path d="M 11.042969 -2.488281 L 5.578125 -2.488281 C 5.226562 -2.488281 4.941406 -2.519531 4.707031 -2.605469 C 4.503906 -2.671875 4.335938 -2.789062 4.21875 -2.976562 C 4.085938 -3.160156 3.984375 -3.410156 3.933594 -3.714844 C 3.867188 -4.050781 3.847656 -4.46875 3.847656 -4.976562 L 3.847656 -13.261719 C 3.847656 -13.796875 3.511719 -13.847656 3.378906 -13.847656 L 1.832031 -13.847656 C 1.679688 -13.847656 1.34375 -13.796875 1.34375 -13.261719 L 1.34375 -5.261719 C 1.34375 -4.320312 1.429688 -3.511719 1.578125 -2.855469 C 1.730469 -2.183594 1.964844 -1.628906 2.300781 -1.210938 C 2.640625 -0.773438 3.074219 -0.453125 3.613281 -0.269531 C 4.117188 -0.0859375 4.757812 0.015625 5.496094 0.015625 L 11.042969 0.015625 C 11.195312 0.015625 11.511719 -0.0507812 11.511719 -0.570312 L 11.511719 -1.898438 C 11.511719 -2.421875 11.195312 -2.488281 11.042969 -2.488281 Z M 11.042969 -2.488281 "/></g></g></g><g fill="#d0eff2" fill-opacity="1"><g transform="translate(265.963385, 213.596917)"><g><path d="M 12.789062 -12.621094 C 12.453125 -13.042969 12.015625 -13.363281 11.480469 -13.5625 C 10.957031 -13.75 10.320312 -13.847656 9.578125 -13.847656 L 5.480469 -13.847656 C 4.738281 -13.847656 4.117188 -13.75 3.597656 -13.5625 C 3.058594 -13.363281 2.621094 -13.042969 2.285156 -12.621094 C 1.964844 -12.203125 1.714844 -11.648438 1.5625 -10.976562 C 1.410156 -10.320312 1.34375 -9.53125 1.34375 -8.589844 L 1.34375 -5.261719 C 1.34375 -4.320312 1.410156 -3.511719 1.5625 -2.855469 C 1.714844 -2.183594 1.964844 -1.628906 2.285156 -1.210938 C 2.621094 -0.773438 3.058594 -0.453125 3.597656 -0.269531 C 4.101562 -0.0859375 4.738281 0.015625 5.480469 0.015625 L 9.578125 0.015625 C 10.320312 0.015625 10.957031 -0.0859375 11.480469 -0.269531 C 12.015625 -0.453125 12.453125 -0.773438 12.789062 -1.191406 C 13.125 -1.628906 13.363281 -2.183594 13.511719 -2.855469 C 13.648438 -3.511719 13.730469 -4.320312 13.730469 -5.261719 L 13.730469 -8.589844 C 13.730469 -9.511719 13.648438 -10.320312 13.511719 -10.976562 C 13.363281 -11.648438 13.125 -12.203125 12.789062 -12.621094 Z M 11.226562 -8.875 L 11.226562 -4.957031 C 11.226562 -4.46875 11.210938 -4.050781 11.144531 -3.714844 C 11.09375 -3.410156 10.992188 -3.144531 10.855469 -2.976562 C 10.738281 -2.789062 10.570312 -2.671875 10.351562 -2.605469 C 10.132812 -2.519531 9.847656 -2.488281 9.496094 -2.488281 L 5.5625 -2.488281 C 5.210938 -2.488281 4.925781 -2.519531 4.707031 -2.605469 C 4.488281 -2.671875 4.320312 -2.789062 4.203125 -2.976562 C 4.066406 -3.144531 3.984375 -3.410156 3.917969 -3.714844 C 3.867188 -4.050781 3.832031 -4.46875 3.832031 -4.957031 L 3.832031 -8.875 C 3.832031 -9.363281 3.867188 -9.78125 3.917969 -10.117188 C 3.984375 -10.4375 4.066406 -10.6875 4.203125 -10.875 C 4.320312 -11.042969 4.488281 -11.160156 4.707031 -11.242188 C 4.925781 -11.3125 5.210938 -11.363281 5.5625 -11.363281 L 9.496094 -11.363281 C 9.847656 -11.363281 10.132812 -11.3125 10.351562 -11.242188 C 10.570312 -11.160156 10.738281 -11.042969 10.855469 -10.875 C 10.992188 -10.6875 11.09375 -10.4375 11.144531 -10.117188 C 11.210938 -9.78125 11.226562 -9.363281 11.226562 -8.875 Z M 11.226562 -8.875 "/></g></g></g><g fill="#d0eff2" fill-opacity="1"><g transform="translate(281.879715, 213.596917)"><g><path d="M 9.578125 -13.847656 L 1.816406 -13.847656 C 1.679688 -13.847656 1.34375 -13.796875 1.34375 -13.261719 L 1.34375 -11.933594 C 1.34375 -11.410156 1.679688 -11.363281 1.816406 -11.363281 L 9.144531 -11.363281 C 9.5625 -11.363281 9.867188 -11.242188 10.035156 -10.992188 C 10.21875 -10.738281 10.300781 -10.335938 10.300781 -9.78125 C 10.300781 -9.226562 10.21875 -8.824219 10.035156 -8.570312 C 9.867188 -8.320312 9.5625 -8.203125 9.144531 -8.203125 L 1.816406 -8.203125 C 1.679688 -8.203125 1.34375 -8.152344 1.34375 -7.628906 L 1.34375 -0.570312 C 1.34375 -0.0507812 1.679688 0.015625 1.816406 0.015625 L 3.363281 0.015625 C 3.496094 0.015625 3.832031 -0.0507812 3.832031 -0.570312 L 3.832031 -5.714844 L 9.578125 -5.730469 C 10.722656 -5.730469 11.546875 -6.085938 12.050781 -6.789062 C 12.554688 -7.496094 12.789062 -8.503906 12.789062 -9.832031 L 12.789062 -9.730469 C 12.789062 -11.074219 12.554688 -12.085938 12.050781 -12.773438 C 11.546875 -13.496094 10.722656 -13.847656 9.578125 -13.847656 Z M 9.578125 -13.847656 "/></g></g></g><g fill="#d0eff2" fill-opacity="1"><g transform="translate(296.854857, 213.596917)"><g><path d="M 11.445312 -3.007812 L 5.53125 -3.007812 C 5.175781 -3.007812 4.890625 -3.058594 4.65625 -3.125 C 4.4375 -3.210938 4.285156 -3.328125 4.152344 -3.496094 C 4.015625 -3.679688 3.917969 -3.933594 3.867188 -4.253906 C 3.847656 -4.335938 3.847656 -4.453125 3.832031 -4.539062 C 3.832031 -4.539062 3.847656 -5.746094 3.867188 -5.746094 L 11.378906 -5.746094 C 11.511719 -5.746094 11.847656 -5.816406 11.847656 -6.335938 L 11.847656 -7.664062 C 11.847656 -8.183594 11.511719 -8.234375 11.378906 -8.234375 L 2.707031 -8.21875 C 2.21875 -8.183594 1.796875 -7.933594 1.5625 -7.511719 C 1.480469 -7.378906 1.410156 -7.242188 1.378906 -7.09375 L 1.34375 -4.976562 L 1.34375 -4.890625 C 1.363281 -4.101562 1.445312 -3.429688 1.5625 -2.875 C 1.714844 -2.203125 1.964844 -1.648438 2.285156 -1.226562 C 2.621094 -0.789062 3.058594 -0.488281 3.597656 -0.300781 C 4.117188 -0.101562 4.738281 -0.015625 5.480469 -0.015625 L 11.445312 -0.015625 C 11.597656 -0.015625 11.933594 -0.0664062 11.933594 -0.589844 L 11.933594 -2.4375 C 11.933594 -2.957031 11.597656 -3.007812 11.445312 -3.007812 Z M 11.460938 -13.882812 L 1.796875 -13.882812 C 1.664062 -13.882812 1.34375 -13.816406 1.34375 -13.277344 L 1.34375 -11.964844 C 1.34375 -11.445312 1.664062 -11.394531 1.796875 -11.394531 L 11.460938 -11.378906 C 11.597656 -11.378906 11.933594 -11.445312 11.933594 -11.964844 L 11.933594 -13.292969 C 11.933594 -13.816406 11.597656 -13.882812 11.460938 -13.882812 Z M 11.460938 -13.882812 "/></g></g></g><g fill="#d0eff2" fill-opacity="1"><g transform="translate(310.972844, 213.596917)"><g><path d="M 12.808594 -9.832031 C 12.808594 -9.816406 12.808594 -9.796875 12.808594 -9.78125 C 12.808594 -9.765625 12.808594 -9.75 12.808594 -9.730469 Z M 13.125 -0.722656 L 10.183594 -5.765625 C 11.007812 -5.867188 11.648438 -6.21875 12.066406 -6.789062 C 12.539062 -7.480469 12.789062 -8.472656 12.808594 -9.78125 C 12.789062 -11.09375 12.539062 -12.085938 12.066406 -12.773438 C 11.5625 -13.496094 10.722656 -13.847656 9.578125 -13.847656 L 1.832031 -13.847656 C 1.679688 -13.847656 1.34375 -13.796875 1.34375 -13.261719 L 1.34375 -11.933594 C 1.34375 -11.410156 1.679688 -11.363281 1.832031 -11.363281 L 9.144531 -11.363281 C 9.578125 -11.363281 9.867188 -11.242188 10.035156 -10.992188 C 10.21875 -10.738281 10.300781 -10.335938 10.300781 -9.78125 C 10.300781 -9.226562 10.21875 -8.824219 10.035156 -8.570312 C 9.867188 -8.320312 9.578125 -8.203125 9.144531 -8.203125 L 1.832031 -8.203125 C 1.679688 -8.203125 1.34375 -8.152344 1.34375 -7.628906 L 1.34375 -0.570312 C 1.34375 -0.0507812 1.679688 0.015625 1.832031 0.015625 L 3.363281 0.015625 C 3.511719 0.015625 3.832031 -0.0507812 3.832031 -0.570312 L 3.832031 -5.714844 L 7.378906 -5.714844 L 10.421875 -0.320312 C 10.488281 -0.21875 10.539062 -0.132812 10.605469 -0.0859375 C 10.6875 -0.015625 10.808594 0.015625 10.957031 0.015625 L 12.808594 0.015625 C 13.007812 0.015625 13.160156 -0.117188 13.195312 -0.320312 C 13.210938 -0.488281 13.195312 -0.621094 13.125 -0.722656 Z M 13.125 -0.722656 "/></g></g></g><g fill="#d0eff2" fill-opacity="1"><g transform="translate(326.368165, 213.596917)"><g><path d="M 3.09375 -2.421875 L 2 -2.421875 C 1.628906 -2.421875 1.34375 -2.132812 1.34375 -1.765625 L 1.34375 -0.671875 C 1.34375 -0.320312 1.628906 -0.015625 2 -0.015625 L 3.09375 -0.015625 C 3.445312 -0.015625 3.746094 -0.320312 3.746094 -0.671875 L 3.746094 -1.765625 C 3.746094 -2.132812 3.445312 -2.421875 3.09375 -2.421875 Z M 3.09375 -2.421875 "/></g></g></g></svg>